<svg width="24" height="28" viewBox="0 0 24 28" fill="none" xmlns="http://www.w3.org/2000/svg">
<path d="M1.79913 27.5604C1.62498 27.6769 1.42246 27.7439 1.2132 27.7542C1.00394 27.7645 0.795804 27.7178 0.611044 27.619C0.426283 27.5202 0.271838 27.373 0.164213 27.1933C0.0565885 27.0135 -0.000170982 26.8079 3.86902e-07 26.5984V4.65045C-2.06315e-06 3.42542 0.486003 2.25043 1.35136 1.38334C2.21672 0.516254 3.39073 0.0278972 4.61575 0.0254471L18.4908 9.26931e-06C19.0981 -0.00120667 19.6998 0.117219 20.2614 0.348524C20.823 0.57983 21.3335 0.919485 21.7638 1.3481C22.1942 1.77671 22.5359 2.28588 22.7694 2.84655C23.003 3.40722 23.1238 4.0084 23.125 4.61576V26.5984C23.1252 26.8079 23.0684 27.0135 22.9608 27.1933C22.8532 27.373 22.6987 27.5202 22.514 27.619C22.3292 27.7178 22.1211 27.7645 21.9118 27.7542C21.7025 27.7439 21.5 27.6769 21.3259 27.5604L11.5625 21.0391L1.79681 27.5604H1.79913ZM20.8102 4.6227L20.794 4.34982C20.7272 3.78733 20.4562 3.26893 20.0325 2.89297C19.6088 2.51701 19.0618 2.30964 18.4954 2.3102L4.62038 2.33332C4.00786 2.33455 3.42086 2.57873 2.98818 3.01227C2.5555 3.44582 2.3125 4.03331 2.3125 4.64582V24.4339L10.9196 18.685C11.1096 18.5582 11.3329 18.4906 11.5613 18.4906C11.7898 18.4906 12.0131 18.5582 12.2031 18.685L20.8125 24.4339V4.6227H20.8102Z" fill="url(#paint0_linear)"/>
<defs>
<linearGradient id="paint0_linear" x1="-0.0045166" y1="13.8727" x2="23.1205" y2="13.8727" gradientUnits="userSpaceOnUse">
<stop stop-color="#0282FB"/>
<stop offset="1" stop-color="#02EF51"/>
</linearGradient>
</defs>
</svg>
