<svg width="600" height="500" viewBox="0 0 600 500" fill="none" xmlns="http://www.w3.org/2000/svg">
<path d="M300.33 500C450.181 500 571.66 388.071 571.66 250C571.66 111.929 450.181 0 300.33 0C150.479 0 29 111.929 29 250C29 388.071 150.479 500 300.33 500Z" fill="#CBE3FF"/>
<path opacity="0.32" d="M349.889 388C350.06 388 461.867 331.292 462 331.403L278.641 222.304L174.786 186L134 256.959C158.388 271.248 323.888 376.751 349.889 388Z" fill="url(#paint0_linear)"/>
<path opacity="0.32" d="M144.207 409.545C153.668 412.343 163.129 415.031 172.911 417.007C178.855 418.027 184.858 418.693 190.886 419L200.991 412.379L271 362.121L221.558 329L91 387.525C106.572 398.644 125.891 404.113 144.207 409.545Z" fill="url(#paint1_linear)"/>
<path d="M213.065 308.937C205.832 304.294 197.316 301.793 188.12 303.579C178.399 305.562 169.844 311.223 159.851 312.598C158.276 312.812 151.976 312.437 151.004 313.277C123.221 337.476 200.874 334.922 200.874 334.922C208.418 329.261 215.515 323.671 223 317.938C220.745 313.259 216.934 311.437 213.065 308.937Z" fill="#F8997C"/>
<path d="M176.974 344.157L174.002 419.843C173.897 422.719 178.921 422.719 179.025 419.843L181.998 344.157C182.123 341.281 177.1 341.281 176.974 344.157Z" fill="#844040"/>
<path d="M233.317 384.19C219.532 370.949 206.359 357.133 193.799 342.739C191.904 340.545 188.682 343.725 190.577 345.901C203.124 360.282 216.297 374.098 230.095 387.351C232.18 389.359 235.421 386.254 233.317 384.19Z" fill="#844040"/>
<path d="M160.748 337.118C149.978 356.981 139.805 377.135 130.23 397.581C129.01 400.188 132.977 402.46 134.198 399.834C143.709 379.376 153.882 359.221 164.715 339.371C166.089 336.839 162.121 334.567 160.748 337.118Z" fill="#844040"/>
<path d="M221.848 315.459C217.208 321.622 210.679 326.204 203.194 328.549C192.673 331.616 177.372 330.157 171.842 319.648C161.783 300.518 171.225 276.638 160.607 257.938C159.37 255.576 157.634 253.492 155.513 251.823C153.391 250.154 150.932 248.938 148.294 248.252C141.415 246.812 136.732 251.767 134.188 257.602C129.718 268.036 129.872 281.032 130.084 292.159C130.095 301.146 130.778 310.121 132.126 319.012C132.126 319.012 138.563 356.299 188.742 346.295C197.416 344.789 205.755 341.835 213.388 337.562C217.286 335.413 220.705 332.534 223.447 329.091C226.53 324.828 224.507 319.741 221.848 315.459Z" fill="#BF59C0"/>
<path d="M376.476 70C376.476 70 370.396 74.298 369.015 95.7693C367.635 117.241 366.292 130.69 364.651 134.47C363.009 138.249 341 152.384 341 152.384L351.855 165L385 144.974" fill="#E6E6E6"/>
<path d="M414 226.958V303H419.76L421 225" fill="#895851"/>
<path d="M446.347 198L458 280H452.174L440 201.034" fill="#895851"/>
<path d="M331.63 255C331.63 255 326.145 272.081 324.916 273.823C323.686 275.564 305.711 286.791 306.004 290.33C306.296 293.868 313.088 295.258 317.324 294.961C321.559 294.665 345.955 285.013 347.478 282.178C349 279.344 349 255.019 349 255.019L331.63 255Z" fill="#5C2D1D"/>
<path d="M359.034 275C359.034 275 353.677 292.081 352.476 293.823C351.275 295.564 333.718 306.791 334.003 310.33C334.289 313.868 340.923 315.258 345.06 314.961C349.197 314.665 373.026 305.013 374.513 302.178C376 299.344 376 275.019 376 275.019L359.034 275Z" fill="#5C2D1D"/>
<path d="M450 120.331C448.458 124.452 439.748 187 439.748 187L431 184.204L442.408 120" fill="#895851"/>
<path d="M446.835 197.775L447 187L437 190.264L440.037 201" fill="#A9CBF8"/>
<path d="M425.988 183C425.988 183 449.069 191.484 446.85 199.841C444.631 208.198 426.026 228.655 414.21 226.893C402.395 225.131 388 215.284 388 215.284" fill="#A9CBF8"/>
<path d="M425.988 172C425.988 172 449.069 180.679 446.85 189.227C444.631 197.776 426.026 218.627 414.21 216.899C402.395 215.17 388 205.024 388 205.024" fill="#CBE3FF"/>
<path d="M435.371 93C435.371 93 457.678 98.3501 460.03 110.712C462.382 123.074 462.951 145.862 431.274 137.006C399.596 128.15 414.505 105.271 414.505 105.271" fill="#CBE3FF"/>
<path d="M381.157 143.037C381.157 143.037 334.866 173.409 328.885 188.871C322.904 204.333 319 265.262 319 265.262C319 265.262 335.193 274.877 354.04 269.214L368.233 200.178C368.233 200.178 401.889 186.426 407.812 169.254C413.736 152.082 405.754 120 405.754 120" fill="#895851"/>
<path d="M406.015 160.342C406.015 160.342 361.38 191.116 355.559 206.783C349.738 222.45 346 284.186 346 284.186C346 284.186 361.659 293.928 379.885 288.191L393.61 218.24C393.61 218.24 426.156 204.306 431.884 186.906C437.612 169.507 429.894 137 429.894 137" fill="#895851"/>
<path d="M424.306 160.732C432.134 142.47 439.2 89.5083 434.477 83.7556C428.934 76.9254 397.432 65.7852 397.432 65.7852C393.723 64.8189 389.822 64.7433 386.075 65.565C382.329 66.3868 378.85 68.0806 375.948 70.497C368.33 76.7245 373.681 125.066 375.948 149.318C389.299 161.152 405.088 164.02 424.306 160.732Z" fill="#E6E6E6"/>
<path d="M391.385 167.169C383.429 175.186 374.848 182.89 367.499 191.426C361.068 198.833 358.532 208.24 356.034 217.572C350.209 239.293 347.618 261.698 345.009 283.993C344.844 285.345 346.957 285.326 347.104 283.993C349.584 262.55 352.102 241.015 357.503 220.072C360.168 209.813 362.814 199.592 370.108 191.611C377.402 183.63 385.248 176.279 392.818 168.65C392.954 168.449 393.017 168.206 392.996 167.964C392.975 167.721 392.871 167.493 392.703 167.319C392.534 167.144 392.31 167.034 392.07 167.007C391.83 166.979 391.588 167.037 391.385 167.169V167.169Z" fill="#5C2D1D"/>
<path d="M374.472 164C374.472 164 353.324 169.144 354.03 171.067C354.736 172.989 361.671 171.067 361.671 171.067C361.671 171.067 347.493 177.053 350.39 182.985C352.201 186.829 365.727 184.211 369.384 182.985C373.042 181.758 383 172 383 172L374.472 164Z" fill="#FFD8C6"/>
<path d="M413.795 105.244C413.795 105.244 409.106 139.257 405.538 143.841C401.97 148.425 365 164.74 365 164.74C365 164.74 377.068 170.165 376.788 183C376.788 183 423.341 171.363 427.937 160.661C432.532 149.959 446.132 96.0013 434.251 82.9047C422.37 69.8082 413.795 105.244 413.795 105.244Z" fill="#E6E6E6"/>
<path d="M385.552 65.2342C385.552 65.2342 378.828 80.1629 393.371 85.7611C407.913 91.3594 424 76.1695 424 76.1695C424 76.1695 402.382 63.1069 385.552 65.2342Z" fill="#6CA3D8"/>
<path d="M410.482 70.1274L416 72.2943L400.725 83L397.957 78.0236L390 79.4192C390 79.4192 391.626 66.3079 391.936 66.0141C392.246 65.7203 410.482 70.1274 410.482 70.1274Z" fill="#4687BC"/>
<path d="M427.592 44.0961C426.006 37.1484 420.405 34.6563 414.077 34.6563C412.941 33.3436 411.558 32.2602 410.006 31.4657C405.188 29.2001 398.536 29.4456 394.522 33.0138C392.92 32.4643 391.203 32.3278 389.533 32.6173C384.562 33.5424 382.976 38.2812 383.129 42.6423C383.129 42.8123 383.129 42.9822 383.129 43.171C382.001 50.7228 388.653 55.3671 388.653 55.3671L409.681 72C412.537 71.1583 415.129 69.6119 417.212 67.5067C417.924 66.6543 418.475 65.6822 418.837 64.637C419.04 64.5293 419.232 64.4028 419.411 64.2594C425.298 59.5584 429.332 51.7045 427.592 44.0961Z" fill="#895851"/>
<path d="M390.013 49.3685C390.013 51.8957 389.214 75.7028 400.127 75.9958C411.04 76.2888 415 61.1622 415 61.1622C415 61.1622 406.039 56.6205 406.039 52.9396C406.039 49.2586 406.764 47.7936 402.321 45.889C397.877 43.9844 389.92 45.1382 390.013 49.3685Z" fill="#FFE0CE"/>
<path d="M467 250C467 250 465.239 329.674 462.703 331.95C460.168 334.225 449 258.509 449 258.509" fill="#844040"/>
<path d="M177.922 181C177.922 181 153.244 288.108 157.491 290.943C161.739 293.777 192 190.864 192 190.864" fill="#844040"/>
<path d="M352.071 291C353.729 295.681 348.028 386.74 350.748 387.988C353.468 389.236 368 292.028 368 292.028" fill="#844040"/>
<path d="M447.39 235.87V250.564H442.905L441.36 242.47" fill="#A85C5C"/>
<path d="M154 181V164L161 173.418L154 181Z" fill="#A85C5C"/>
<path d="M160.756 168.349L248.802 118.687C251.922 116.927 255.462 116 259.066 116C262.669 116 266.209 116.927 269.33 118.687L478.138 236.455C480.225 237.631 481.957 239.324 483.161 241.362C484.366 243.4 485 245.711 485 248.065C485 250.418 484.366 252.73 483.161 254.768C481.957 256.806 480.225 258.498 478.138 259.675L389.941 309.43C386.955 311.114 383.569 312 380.122 312C376.675 312 373.289 311.114 370.303 309.43L160.756 191.236C158.701 190.075 156.996 188.406 155.81 186.398C154.624 184.389 154 182.111 154 179.793C154 177.474 154.624 175.196 155.81 173.188C156.996 171.179 158.701 169.51 160.756 168.349Z" fill="#A85C5C"/>
<path d="M159.755 152.399L247.791 102.698C250.916 100.93 254.462 100 258.073 100C261.683 100 265.23 100.93 268.355 102.698L477.139 220.47C479.225 221.647 480.957 223.339 482.162 225.377C483.366 227.415 484 229.727 484 232.081C484 234.434 483.366 236.746 482.162 238.784C480.957 240.822 479.225 242.515 477.139 243.691L388.914 293.43C385.929 295.114 382.543 296 379.096 296C375.649 296 372.263 295.114 369.279 293.43L159.755 175.287C157.701 174.126 155.995 172.457 154.81 170.448C153.624 168.44 153 166.162 153 163.843C153 161.524 153.624 159.246 154.81 157.238C155.995 155.229 157.701 153.56 159.755 152.399V152.399Z" fill="#C96F6F"/>
<path d="M274 184.301C275.346 184.629 315.395 208 315.395 208L374 176.006L333.799 153L274 184.301Z" fill="white"/>
<path d="M269 210.293C270.36 210.621 310.825 234 310.825 234L370 202.014L329.42 179L269 210.293Z" fill="#0295DD"/>
<path d="M255.235 351C255.235 351 254.839 357.456 256.951 359.265C259.063 361.075 270.528 356.055 273.583 357.829C276.638 359.602 262.08 372.55 256.951 373.26C251.822 373.969 247.07 367.105 247.07 367.105V376.896L241.262 380L237 377.605L238.263 351H255.235Z" fill="#8787D1"/>
<path d="M235.222 354.924C241.366 360.09 247.966 359.924 255.589 356.776C261.07 347.369 267.518 290.112 253.825 280.853C239.109 271.02 216.106 272.78 212.256 273.854L155.894 282.872C151.57 290.057 163.025 327.684 188.133 328.74C213.242 329.795 229.134 320.592 229.134 320.592L235.222 354.924Z" fill="#124577"/>
<path d="M213.955 198.21C211.138 199.349 208.797 201.312 207.287 203.8V203.987C203.102 207.173 202.441 212.987 197.996 215.857C197.996 215.969 193.811 218.708 193.771 218.82C193.731 218.932 194.171 213.49 194.151 213.528C192.709 217.254 191.288 220.981 190.146 224.708C190.346 224.823 190.561 224.911 190.787 224.969L190.327 225.174L189.926 225.398C189.872 225.586 189.772 225.76 189.632 225.905C189.493 226.051 189.32 226.164 189.125 226.236C188.955 226.784 188.958 227.365 189.136 227.91C189.314 228.456 189.658 228.941 190.127 229.308C190.595 229.675 191.168 229.908 191.776 229.978C192.383 230.048 193 229.952 193.55 229.702L207.007 223.59C208.797 223.232 210.557 222.753 212.273 222.155C212.273 220.851 212.493 219.546 212.633 218.242C213.695 216.717 214.334 214.97 214.491 213.158C214.648 211.347 214.319 209.527 213.534 207.863C213.603 207.778 213.684 207.703 213.775 207.639V207.509C214.887 206.783 215.833 205.86 216.558 204.791C217.284 203.723 217.774 202.531 218 201.285C218.02 199.552 216.098 197.297 213.955 198.21Z" fill="#F7931E"/>
<path d="M196.708 209C196.708 209 210.554 217.934 212 225.366C212 225.366 202.275 247.307 202.962 248.17C213.952 263.054 181 238.786 181 238.786C181 238.786 187.634 217.915 196.708 209Z" fill="#BF59C0"/>
<path d="M229.407 214.904C230.602 224.728 217.797 238.415 212.333 241.052C204.935 244.673 202.051 214.551 169.536 214.681C167.43 214.681 156.883 210.28 151.343 223.855C145.804 237.431 151.343 276.337 155.043 283.115C158.305 289.095 179.989 303.543 210.967 288.092L211.423 274.071C211.423 274.071 229.691 273.681 239.385 260.533C248.415 248.257 253.765 229.835 252.911 220.791C245.721 217.69 236.672 212.601 229.407 214.904Z" fill="#BF59C0"/>
<path d="M196.708 209C196.708 209 210.554 217.934 212 225.366C212 225.366 202.275 247.307 202.962 248.17C213.952 263.054 181 238.786 181 238.786C181 238.786 187.634 217.915 196.708 209Z" fill="#8787D1"/>
<path d="M216.072 173L255 181.159L248.435 233L211 221.48" fill="#124577"/>
<path d="M255.661 203.142C255.564 202.722 255.377 202.328 255.111 201.986C254.845 201.644 254.507 201.363 254.12 201.161C253.733 200.96 253.307 200.842 252.87 200.818C252.433 200.793 251.996 200.862 251.589 201.018C251.398 200.284 250.962 199.633 250.35 199.172C249.854 198.806 249.257 198.597 248.637 198.57C248.018 198.544 247.405 198.702 246.878 199.025C246.548 199.21 246.25 199.447 245.996 199.726L245.808 199.523C245.39 199.039 244.834 198.69 244.211 198.522C243.588 198.354 242.928 198.375 242.318 198.581C241.956 198.745 241.63 198.977 241.361 199.265C241.006 197.543 240.555 195.842 240.009 194.169C239.503 192.489 238.658 189.406 236.556 189.037C235.186 188.797 234.548 189.775 234.267 190.883C233.919 191.677 233.866 192.565 234.116 193.394C234.213 194.529 234.382 195.658 234.623 196.772C234.811 198.36 234.98 199.948 235.13 201.535C234.85 201.533 234.581 201.64 234.379 201.831C233.378 202.558 232.638 203.579 232.267 204.748C231.895 205.916 231.912 207.171 232.315 208.329C233.224 211.655 234.482 214.879 236.068 217.948C236.132 218.084 236.223 218.205 236.337 218.305C236.45 218.404 236.583 218.48 236.727 218.527C236.872 218.574 237.024 218.591 237.176 218.577C237.327 218.563 237.474 218.519 237.607 218.447L237.776 219.037C237.839 219.305 237.995 219.542 238.218 219.707C238.441 219.872 238.716 219.954 238.995 219.938C239.274 219.923 239.538 219.811 239.74 219.622C239.943 219.434 240.072 219.181 240.103 218.908V218.687C240.22 218.779 240.354 218.849 240.497 218.89L240.591 220.182C240.591 221.364 242.468 221.364 242.862 220.385L242.975 221.327C243.125 222.638 245.227 222.49 245.302 221.198V220.145C245.499 220.137 245.692 220.086 245.867 219.997C246.042 219.908 246.195 219.782 246.315 219.628C246.518 219.886 246.813 220.058 247.141 220.108C247.299 220.234 247.49 220.314 247.692 220.341C247.894 220.367 248.1 220.337 248.286 220.256V220.533C248.386 220.844 248.602 221.107 248.891 221.268C249.18 221.429 249.52 221.476 249.843 221.401C249.843 221.53 249.843 221.659 249.843 221.788C249.843 223.265 252.227 223.468 252.189 221.973C252.189 219.007 252.108 216.04 251.945 213.074C252.074 213.01 252.188 212.922 252.283 212.816C254.742 210.434 256.844 206.446 255.661 203.142ZM243.05 200.908C243.145 200.845 243.254 200.804 243.367 200.788C243.481 200.772 243.597 200.782 243.707 200.815C243.645 200.901 243.595 200.994 243.556 201.092H242.843C242.898 201.002 242.968 200.921 243.05 200.852V200.908Z" fill="#F7931E"/>
<path d="M187.563 179.91C187.563 180.244 189.55 200.125 185.052 204.505C180.554 208.886 168.616 207.086 165.655 202.296C162.694 197.507 159.058 191.159 162.225 183.734C165.392 176.309 187.038 175.009 187.563 179.91Z" fill="#F7931E"/>
<path d="M181.457 192.275C181.622 191.883 181.676 191.45 181.612 191.027C181.548 190.604 181.369 190.209 181.096 189.889C179.62 187.984 177.569 186.656 175.276 186.122C174.238 185.866 173.144 186.016 172.205 186.544C171.265 187.073 170.544 187.943 170.179 188.989C168.714 194.075 176.621 195.581 179.852 196C180.42 195.995 180.963 195.757 181.365 195.338C181.766 194.919 181.994 194.353 181.999 193.761C182.013 193.211 181.818 192.677 181.457 192.275Z" fill="#FFE8E6"/>
<path d="M229.407 214.904C230.602 224.728 217.797 238.415 212.333 241.052C204.935 244.673 202.051 214.551 169.536 214.681C167.43 214.681 156.883 210.28 151.343 223.855C145.804 237.431 151.343 276.337 155.043 283.115C158.305 289.095 179.989 303.543 210.967 288.092L211.423 274.071C211.423 274.071 229.691 273.681 239.385 260.533C248.415 248.257 253.765 229.835 252.911 220.791C245.721 217.69 236.672 212.601 229.407 214.904Z" fill="#8787D1"/>
<path d="M227.86 270.837C219.388 273.82 210.148 273.92 201.611 271.124C193.075 268.327 185.734 262.794 180.76 255.406C180.112 254.429 178.491 255.406 179.158 256.327C184.342 264.081 192.013 269.897 200.945 272.848C209.877 275.799 219.555 275.713 228.432 272.604C229.461 272.21 228.985 270.443 227.86 270.837Z" fill="white"/>
<path d="M208.932 238.832C207.294 234.936 204.869 231.439 201.815 228.569C198.313 225.314 193.987 223.227 190.335 220.183C189.605 219.57 188.463 220.642 189.287 221.255C192.732 224.127 196.778 226.138 200.167 229.105C203.409 231.977 205.971 235.565 207.658 239.598C208.033 240.497 209.306 239.732 208.932 238.832Z" fill="white"/>
<path d="M187.737 182.49L181.115 185.759C181.115 185.759 186.242 204.025 187.776 208.92C189.31 213.815 183.154 220.501 163.151 220.994C143.148 221.487 144.158 193.011 148.78 182.38C153.402 171.75 167.249 166.928 178.532 169.832C181.522 170.39 184.16 172.028 185.881 174.394C187.602 176.761 188.268 179.667 187.737 182.49V182.49Z" fill="#B24D16"/>
<path d="M224.074 319.851C223.873 319.369 223.548 318.944 223.132 318.617C222.715 318.29 222.219 318.071 221.691 317.981C221.163 317.891 220.62 317.933 220.113 318.103C219.607 318.273 219.153 318.566 218.795 318.953C214.566 323.446 209.188 326.771 203.207 328.591C192.686 331.66 177.387 330.2 171.857 319.683C161.838 300.614 171.183 276.754 160.739 258.153C158.94 254.804 156.227 252.001 152.897 250.05C143.475 244.773 137.194 250.555 134.188 257.535C129.718 267.978 129.872 280.983 130.084 292.118C130.095 301.112 130.777 310.093 132.126 318.991C132.126 318.991 138.562 356.305 188.736 346.294C197.41 344.787 205.748 341.83 213.38 337.554C217.278 335.404 220.697 332.522 223.438 329.077C224.337 327.716 224.867 326.157 224.978 324.544C225.089 322.931 224.778 321.316 224.074 319.851Z" fill="#028FE7"/>
<path d="M411.136 101.892C410.69 108.375 410.262 114.876 409.74 121.359C409.145 128.61 408.195 135.617 403.728 141.575C396.078 151.786 383.383 155.627 371.713 159.093C371.591 159.126 371.476 159.183 371.376 159.261C371.275 159.339 371.191 159.436 371.128 159.546C371.001 159.769 370.967 160.034 371.033 160.283C371.1 160.531 371.262 160.743 371.484 160.871C371.705 160.999 371.968 161.034 372.215 160.966C384.258 157.388 397.307 153.341 405.217 142.793C408.622 137.979 410.667 132.327 411.136 126.436C412.104 118.324 412.439 110.099 412.998 101.949C413.072 100.693 411.211 100.693 411.136 101.892Z" fill="#B6BBBF"/>
<path d="M376.826 99.8833L375 148.117C375 149.294 377.174 149.294 377.174 148.117L378.999 99.8833C379.043 98.7056 376.869 98.7056 376.826 99.8833Z" fill="#B6BBBF"/>
<path opacity="0.32" d="M371.115 267.561C374.688 268.584 378.279 269.589 381.966 270.277C384.21 270.648 386.477 270.889 388.753 271L392.534 268.584L419 250.261L398.791 244L351 259.537C356.993 263.593 364.195 265.586 371.115 267.561Z" fill="url(#paint2_linear)"/>
<path d="M409.08 229.177C404.287 228.955 399.697 227.222 396 224.237V237.854C396 241.606 397.528 245.204 400.247 247.857C402.966 250.51 406.654 252 410.5 252C414.346 252 418.034 250.51 420.753 247.857C423.472 245.204 425 241.606 425 237.854V224C419.899 226.005 414.293 229.651 409.08 229.177Z" fill="#0295DD"/>
<path d="M410 232C418.284 232 425 228.642 425 224.5C425 220.358 418.284 217 410 217C401.716 217 395 220.358 395 224.5C395 228.642 401.716 232 410 232Z" fill="#5ED18D"/>
<path d="M411 225C411 225 400.729 223.576 398 208C398 208 406.771 212.528 411 225Z" fill="#5ED18D"/>
<path d="M411.607 223C411.607 223 401.241 202.656 411.607 189C414.798 200.069 414.798 211.931 411.607 223V223Z" fill="#5ED18D"/>
<path d="M411 210C411 210 400.729 208.576 398 193C398 193 406.771 197.528 411 210Z" fill="#5ED18D"/>
<path d="M412.167 218C412.167 218 409.784 207.945 423 199C423.018 199 421.989 208.958 412.167 218Z" fill="#5ED18D"/>
<path d="M410 232C418.284 232 425 228.642 425 224.5C425 220.358 418.284 217 410 217C401.716 217 395 220.358 395 224.5C395 228.642 401.716 232 410 232Z" fill="#146666"/>
<path d="M411 225C411 225 400.729 223.576 398 208C398 208 406.771 212.528 411 225Z" fill="#5ED18D"/>
<path d="M411.607 223C411.607 223 401.241 202.656 411.607 189C414.798 200.069 414.798 211.931 411.607 223V223Z" fill="#5ED18D"/>
<path d="M411 210C411 210 400.729 208.576 398 193C398 193 406.771 197.528 411 210Z" fill="#5ED18D"/>
<path d="M412.167 218C412.167 218 409.784 207.945 423 199C423.018 199 421.989 208.958 412.167 218Z" fill="#5ED18D"/>
<path opacity="0.32" d="M205.12 171.349C208.694 172.435 212.287 173.502 215.974 174.232C218.225 174.682 208.978 174.831 211.247 175L214.745 172.566L253 153.001L224.219 141L185 162.849C190.824 167.137 198.123 169.252 205.12 171.349Z" fill="url(#paint3_linear)"/>
<path d="M215 110V150.05C215 150.05 254 152.187 254 150.05V110" fill="#0295DD"/>
<path d="M234.5 159C245.27 159 254 154.971 254 150C254 145.029 245.27 141 234.5 141C223.73 141 215 145.029 215 150C215 154.971 223.73 159 234.5 159Z" fill="#0295DD"/>
<path d="M234.5 119C245.27 119 254 114.971 254 110C254 105.029 245.27 101 234.5 101C223.73 101 215 105.029 215 110C215 114.971 223.73 119 234.5 119Z" fill="#3129A3"/>
<path d="M223.296 117.297H223.444C224.289 117.563 225.134 117.791 226 118L220.042 73.1727C219.532 72.9993 218.978 72.9554 218.441 73.0459C217.905 73.1364 217.406 73.3577 217 73.6857L223.106 117.164L223.296 117.297Z" fill="#F78B72"/>
<path d="M228.393 118L230 76.3885C229.596 76.1344 229.131 76 228.658 76C228.184 76 227.719 76.1344 227.315 76.3885L226 117.587C226.789 117.771 227.588 117.909 228.393 118Z" fill="#F78B72"/>
<path d="M235 118.919L240.284 76L251 81.5787L246.665 117.636C242.886 118.762 238.934 119.196 235 118.919Z" fill="#FCB749"/>
<defs>
<linearGradient id="paint0_linear" x1="268.43" y1="343.764" x2="326.828" y2="239.542" gradientUnits="userSpaceOnUse">
<stop stop-color="white" stop-opacity="0"/>
<stop offset="0.99" stop-color="#0048AA"/>
</linearGradient>
<linearGradient id="paint1_linear" x1="21136.6" y1="21437.6" x2="25293" y2="15533.2" gradientUnits="userSpaceOnUse">
<stop stop-color="white" stop-opacity="0"/>
<stop offset="0.99" stop-color="#0048AA"/>
</linearGradient>
<linearGradient id="paint2_linear" x1="376.143" y1="262.658" x2="399.678" y2="238.945" gradientUnits="userSpaceOnUse">
<stop stop-opacity="0"/>
<stop offset="0.99" stop-color="#552800"/>
</linearGradient>
<linearGradient id="paint3_linear" x1="10631.8" y1="3741.26" x2="11007.7" y2="3034.25" gradientUnits="userSpaceOnUse">
<stop stop-opacity="0"/>
<stop offset="0.99" stop-color="#552800"/>
</linearGradient>
</defs>
</svg>
