<svg width="23" height="24" viewBox="0 0 23 24" fill="none" xmlns="http://www.w3.org/2000/svg">
<path d="M21.4039 13.884L9.12634 1.60647C7.08007 -0.521646 3.7242 -0.521647 1.59609 1.52462C-0.532028 3.57088 -0.532028 7.0086 1.59609 9.05486L1.67794 9.13672L3.96975 11.5104L5.11566 10.3645L2.74199 7.99081C1.35053 6.59935 1.35053 4.22568 2.74199 2.83422C4.13345 1.44277 6.50712 1.36092 7.89858 2.75237L7.98043 2.83422L20.1762 15.03C21.6495 16.4214 21.6495 18.7951 20.258 20.1865C18.8665 21.6598 16.4929 21.6598 15.1014 20.2684L15.0196 20.1865L8.96263 14.1296C8.14413 13.3111 8.22598 12.0015 8.96263 11.2648C9.78114 10.5282 11.0089 10.5282 11.8274 11.2648L15.1833 14.6207L16.3292 13.4748L12.8915 10.0371C11.4181 8.64561 9.12633 8.72746 7.73488 10.2008C6.42527 11.5922 6.42527 13.8022 7.73488 15.2755L13.8737 21.4143C15.9199 23.5424 19.2758 23.5424 21.4039 21.4961C23.532 19.4499 23.532 16.0122 21.4039 13.884C21.4039 13.884 21.4039 13.9659 21.4039 13.884Z" fill="url(#paint0_linear)"/>
<defs>
<linearGradient id="paint0_linear" x1="11.5" y1="0" x2="11.5" y2="23.0208" gradientUnits="userSpaceOnUse">
<stop stop-color="#0282FB"/>
<stop offset="0.9999" stop-color="#02EF51"/>
<stop offset="1" stop-color="#BF59C0"/>
</linearGradient>
</defs>
</svg>
