<svg width="2096" height="2096" viewBox="0 0 2096 2096" fill="none" xmlns="http://www.w3.org/2000/svg">
<g clip-path="url(#clip0)">
<path d="M2093.85 977.892C2088.99 938.851 2059.76 732.115 1891.58 601.023C1738.32 481.764 1529.01 471.821 1352.17 574.06C1352.17 574.06 1213.55 571.01 1193.38 578.574C1152.07 593.946 1219.65 611.027 1255.08 618.469C1256.48 618.591 1257.15 619.384 1257.04 620.97C1256.93 622.495 1256.14 623.166 1254.75 623.105C1215.57 625.301 1131.62 632.744 1129.16 656.839C1128.15 666.356 1214.73 676.116 1254.75 680.081C1256.26 680.081 1257.04 680.935 1257.04 682.643C1257.04 684.29 1256.26 685.144 1254.75 685.144C1209.19 692.098 1100.49 709.606 1097.08 718.756C1084.84 751.209 1221.71 745.902 1268.44 743.157C1269.84 742.913 1270.68 743.523 1270.96 744.987C1271.24 746.512 1270.68 747.427 1269.33 747.793C1231.05 762.86 1131.73 804.708 1153.3 819.348C1174.82 833.988 1294.32 802.878 1334.67 791.592C1336.13 791.226 1337.52 791.226 1338.98 791.653C1340.37 792.08 1341.6 792.873 1342.67 793.971C1343.67 795.069 1344.45 796.411 1344.84 797.936C1345.29 799.461 1345.35 801.048 1345.01 802.634C1339.03 832.219 1327.02 896.393 1334.62 902.737C1344.62 910.973 1417.17 793.239 1417.17 793.239C1417.17 793.239 1583.5 624.508 1794.78 785.797C1801.71 791.836 1924.22 902.249 1904.83 1074.27C1891.08 1197.74 1809.7 1302.18 1698.08 1339.82C1682.77 1345.24 1667.12 1349.15 1651.19 1351.47C1611.34 1357.51 1571.6 1356.83 1531.92 1349.45C1431.42 1329.63 1360.22 1260.88 1308.52 1210.92C1275.48 1179.01 1254.86 1153.39 1227.02 1118.93C1138.44 1009.25 1113.34 948.123 1049.34 858.023C1042.13 847.958 966.792 742.486 886.922 672.578C854.84 644.456 601.426 421.921 325.096 534.714C179.162 594.251 36.9726 744.255 5.95254 955.687C-35.3516 1238.74 151.328 1431.5 165.524 1445.65C187.043 1465.11 209.902 1482.56 233.992 1497.99C258.137 1513.43 283.233 1526.6 309.278 1537.52C335.38 1548.5 362.04 1557.1 389.427 1563.33C416.759 1569.55 444.369 1573.33 472.259 1574.67C500.149 1575.95 527.984 1574.86 555.706 1571.26C583.428 1567.6 610.704 1561.56 637.532 1553.14C664.416 1544.66 690.462 1533.92 715.669 1520.87C740.932 1507.75 765.022 1492.56 788.049 1475.18C788.049 1475.18 907.602 1449.19 925.264 1436.14C961.314 1409.36 892.12 1412.35 856.181 1415.4C855.008 1415.46 854.281 1414.79 854.002 1413.51C853.778 1412.16 854.225 1411.31 855.399 1410.82C892.679 1397.4 971.822 1365.99 968.468 1342.07C967.071 1332.56 881.277 1348.11 841.649 1355.8C840.252 1356.29 839.358 1355.74 838.911 1354.21C838.519 1352.69 838.967 1351.65 840.364 1351.16C882.674 1331.34 983.336 1283.08 984.453 1273.32C988.422 1238.43 857.69 1283.08 813.2 1299.19C811.971 1299.8 811.021 1299.43 810.406 1298.09C809.791 1296.75 810.07 1295.71 811.3 1294.98C844.556 1269.24 930.574 1200.3 906.037 1192.43C881.5 1184.63 773.964 1248.86 737.746 1271.31C736.461 1272.1 735.063 1272.53 733.61 1272.53C732.157 1272.53 730.76 1272.16 729.474 1271.37C728.189 1270.58 727.183 1269.54 726.4 1268.2C725.618 1266.8 725.226 1265.33 725.171 1263.69C723.829 1233.55 719.973 1168.22 711.086 1164.07C699.46 1159.07 651.002 1302.85 651.002 1302.85C558.557 1373.18 438.78 1380.81 343.093 1322.55C232.259 1255.02 180.056 1115.08 201.463 987.713C227.844 830.633 357.457 743.096 462.478 726.442C574.374 708.325 663.075 769.998 725.171 813.126C805.208 868.759 834.775 921.404 947.621 1071.65C1066.06 1229.22 1125.25 1308.03 1170.13 1351.47C1244.46 1423.39 1422.42 1590.84 1639.84 1568.88C1642.08 1568.88 1649.01 1567.96 1658.73 1566.56C1721.39 1557.53 1888.62 1520.75 2001.69 1352.32C2107.49 1194.51 2097.77 1023.28 2093.85 977.892Z" fill="url(#paint0_linear)"/>
</g>
<defs>
<linearGradient id="paint0_linear" x1="1310" y1="503.04" x2="733.6" y2="1729.2" gradientUnits="userSpaceOnUse">
<stop stop-color="#00EF51"/>
<stop offset="0.883349" stop-color="#0082FB"/>
</linearGradient>
<clipPath id="clip0">
<rect width="2096" height="2096" fill="white"/>
</clipPath>
</defs>
</svg>
