<svg width="600" height="500" viewBox="0 0 600 500" fill="none" xmlns="http://www.w3.org/2000/svg">
<g clip-path="url(#clip0)">
<path opacity="0.18" d="M365.54 21.9679C390.661 36.3754 411.51 58.1709 431.026 81.1559C457.466 112.316 491.164 134.129 521.937 159.359C556.863 187.972 590.333 224.695 598.197 272.005C601.545 292.109 599.939 312.966 595.894 332.935C591.274 356.429 582.95 378.84 571.302 399.143C547.362 440.154 508.922 469.639 466.754 484.265C424.586 498.89 379.085 499.342 335.781 489.827C313.159 484.884 290.81 477.262 267.749 476.608C250.279 476.106 232.9 479.624 215.642 482.17C162.489 490.011 105.866 488.101 58.8348 459.621C29.4704 441.662 3.81826 411.004 0.409088 374.014C-3.5001 331.629 21.2126 295.107 46.2436 266.225C66.6768 242.754 84.4819 216.649 99.2752 188.475C105.821 176.128 112.548 166.344 116.564 152.322C120.412 138.92 122.791 125.032 127.321 111.847C132.505 96.8487 140.463 83.2114 150.686 71.8078C167.262 53.3796 188.899 41.6525 210.081 30.3108C222.506 23.6097 234.96 17.009 248.052 12.2512C278.29 1.36003 310.814 0.927539 341.281 11.0115C349.657 13.8248 357.778 17.4927 365.54 21.9679Z" fill="#0282FB"/>
<path d="M299.492 436.1C301.829 436.742 304.001 437.968 305.841 439.685C310.629 444.711 308.296 454.327 302.993 458.7C297.689 463.072 290.689 463.725 284.098 464.379C262.205 466.454 240.43 469.843 218.869 474.531C197.884 479.105 176.595 484.901 155.049 484.03C147.473 483.728 128.837 483.326 123.367 476.525C116.336 467.78 131.352 457.644 137.61 452.853C163.368 433.068 193.581 437.557 223.354 432.582C248.582 428.36 274.931 427.338 299.492 436.1Z" fill="url(#paint0_linear)"/>
<path d="M406.01 388.454C402.51 389.661 398.949 391.604 397.055 395.072C396.132 397.123 395.401 399.273 394.873 401.488C393.625 405.355 391.62 408.87 389 411.78C386.381 414.691 383.213 416.926 379.722 418.325C377.721 419.112 375.479 419.732 374.237 421.676C373.643 422.72 373.341 423.935 373.368 425.169C373.395 426.402 373.75 427.599 374.388 428.611C375.699 430.603 377.482 432.156 379.54 433.101C386.919 436.921 395.51 436.921 403.51 435.178C411.51 433.436 419.132 430.153 426.905 427.355C436.955 423.85 447.285 421.41 457.754 420.067C466.042 419.012 474.421 418.627 482.421 415.812C490.421 412.998 497.967 407.285 501.028 398.707C491.118 387.466 475.269 386.109 461.163 387.315C443.117 388.823 423.692 382.39 406.01 388.454Z" fill="url(#paint1_linear)"/>
<path d="M54.7892 372.338C51.2891 373.561 47.7284 375.488 45.8344 378.956C44.9066 381.006 44.1704 383.156 43.6374 385.372C42.3966 389.243 40.3937 392.762 37.7734 395.674C35.1532 398.585 31.9808 400.817 28.4855 402.208C26.5006 402.996 24.2581 403.616 23.0005 405.559C22.4145 406.607 22.1169 407.82 22.1438 409.052C22.1707 410.283 22.521 411.48 23.152 412.495C24.457 414.5 26.2481 416.057 28.3188 416.985C35.6978 420.804 44.2889 420.804 52.2891 419.062C60.2893 417.32 67.9107 414.036 75.6837 411.238C85.7345 407.733 96.0641 405.293 106.533 403.951C114.806 402.895 123.2 402.51 131.2 399.712C139.2 396.915 146.746 391.168 149.807 382.591C139.897 371.35 124.049 369.993 109.942 371.199C91.881 372.656 72.4563 366.156 54.7892 372.338Z" fill="url(#paint2_linear)"/>
<path d="M201.172 349.822C191.929 351.665 182.444 353.675 174.474 359.17C171.732 361.047 169.065 363.677 168.671 367.178C168.231 371.082 170.898 374.734 174.126 376.375C177.467 377.756 181.037 378.328 184.596 378.051L226.203 378.335L257.006 378.537C260.734 378.537 265.022 377.933 268.689 378.537C275.401 379.776 281.219 383.395 288.386 383.763C297.614 384.249 306.811 382.356 315.826 380.413C321.463 379.207 327.235 377.933 332.16 374.633C334.145 373.31 336.13 371.283 335.978 368.703C335.769 367.157 335.077 365.74 334.024 364.699C327.008 356.691 315.508 357.344 305.674 354.881C295.22 352.251 285.78 345.584 275.189 343.64C270.327 342.937 265.417 342.735 260.522 343.037C251.779 343.272 242.945 341.982 234.324 343.473C223.233 345.533 212.217 347.778 201.172 349.822Z" fill="url(#paint3_linear)"/>
<path d="M257.613 333.907C249.855 331.964 251.37 344.143 249.324 348.65C248.048 350.959 246.429 353.015 244.536 354.731C242.632 356.466 241.387 358.93 241.052 361.633C241.003 362.138 241.099 362.648 241.324 363.091C241.7 363.627 242.238 363.996 242.839 364.129C247.268 365.555 252.024 365.032 256.113 362.672C258.023 361.662 259.609 360.031 260.658 357.998C261.505 355.815 261.904 353.452 261.825 351.079C262.052 346.003 264.082 335.482 257.613 333.907Z" fill="#FDB9A9"/>
<path d="M250.688 358.936C250.688 358.936 228.612 359.974 237.961 367.647C247.309 375.32 261.294 365.788 262.688 363.962C264.082 362.136 262.946 359.221 262.946 359.221L250.688 358.936Z" fill="#7524DD"/>
<path d="M261.734 362.286C259.764 364.933 249.385 368.502 244.809 368.133C240.233 367.765 236.097 365.402 236.536 362.119C236.976 358.835 245.097 351.213 246.627 351.23C248.158 351.246 249.355 355.15 252.431 355.954C253.797 356.208 255.201 356.07 256.506 355.554C257.811 355.038 258.974 354.16 259.885 353.005C260.164 352.582 260.567 352.278 261.026 352.147C261.485 352.016 261.971 352.064 262.401 352.285C263.029 353.887 263.296 355.634 263.18 357.376C263.064 359.118 262.568 360.803 261.734 362.286Z" fill="white"/>
<path d="M284.219 338.715C276.462 336.721 277.977 348.884 275.931 353.391C274.659 355.708 273.04 357.77 271.143 359.489C269.249 361.233 268.007 363.692 267.658 366.391C267.61 366.896 267.705 367.406 267.931 367.848C268.306 368.385 268.844 368.754 269.446 368.887C273.876 370.304 278.628 369.782 282.719 367.429C284.622 366.408 286.205 364.78 287.265 362.755C288.112 360.573 288.511 358.21 288.432 355.836C288.659 350.71 290.689 340.239 284.219 338.715Z" fill="#FDB9A9"/>
<path d="M277.356 363.644C277.356 363.644 255.279 364.666 264.628 372.355C273.977 380.045 287.947 370.479 289.295 368.737C290.644 366.994 289.553 363.979 289.553 363.979L277.356 363.644Z" fill="#7524DD"/>
<path d="M288.341 366.961C286.371 369.624 276.007 373.176 271.416 372.824C266.825 372.472 262.704 370.093 263.143 366.81C263.582 363.526 271.704 355.887 273.234 355.921C274.764 355.954 275.977 359.841 279.037 360.628C280.407 360.882 281.812 360.744 283.119 360.228C284.427 359.712 285.593 358.835 286.507 357.68C286.784 357.257 287.184 356.954 287.64 356.823C288.096 356.692 288.58 356.74 289.007 356.959C289.635 358.562 289.903 360.309 289.787 362.051C289.671 363.792 289.175 365.477 288.341 366.961Z" fill="white"/>
<path d="M264.219 228.012L274.598 348.633L289.538 346.589C295.447 317.154 293.992 229.05 293.992 229.05L264.219 228.012Z" fill="#473F47"/>
<path d="M274.598 224.745L264.219 345.366L249.173 343.372C240.627 267.013 247.658 219.401 247.658 219.401L274.598 224.745Z" fill="#473F47"/>
<path d="M249.052 181.104C248.87 178.892 248.34 176.698 248.127 174.402C247.642 169.844 247.719 165.234 248.355 160.698C249.059 155.878 250.375 151.191 252.264 146.777C253.991 142.94 257.097 141.315 260.613 139.406C263.541 137.649 266.717 136.454 270.007 135.871C272.337 135.638 274.685 135.785 276.977 136.306C284.022 137.781 293.31 141.801 298.189 148.033C301.811 152.64 302.235 159.258 302.341 165.373C302.492 173.794 302.336 182.215 301.871 190.636C301.871 191.859 301.75 193.082 301.659 194.305C301.008 203.536 300.326 213.118 297.947 222.048C297.204 224.845 296.432 227.66 294.068 229.168C288.553 232.702 280.113 230.843 274.158 229.838C266.264 228.598 258.143 227.308 251.143 223.137C249.681 222.435 248.498 221.174 247.809 219.585C247.203 217.692 247.946 215.631 248.476 213.705C250.84 205.077 249.006 196.014 249.006 187.218C249.006 185.627 249.188 184.002 249.188 182.41C249.173 181.908 249.052 181.506 249.052 181.104Z" fill="white"/>
<path opacity="0.1" d="M268.234 147.028C269.019 145.381 269.953 143.826 271.022 142.388C271.157 142.192 271.334 142.037 271.537 141.935C271.721 141.885 271.914 141.885 272.098 141.935L278.856 143.125C279.171 143.141 279.477 143.257 279.734 143.46C279.948 143.665 280.105 143.932 280.189 144.23C280.605 146.031 280.377 147.939 279.553 149.558C277.583 153.743 275.254 157.71 272.598 161.402C271.08 163.661 269.784 166.093 268.734 168.656C268.234 169.946 268.067 171.404 267.583 172.694C267.098 173.984 266.067 173.313 265.204 173.096L254.779 170.667L249.567 169.46C248.809 169.293 248.218 169.293 248.612 168.304C248.751 168.013 248.94 167.756 249.169 167.546C249.397 167.336 249.662 167.178 249.946 167.081C250.765 166.852 251.602 166.706 252.446 166.646C254.175 166.174 255.796 165.307 257.203 164.099C258.317 163.305 259.375 162.42 260.37 161.452C264.128 157.649 265.84 152.02 268.234 147.028Z" fill="#020202"/>
<path d="M256.885 139.674C257.592 138.617 258.538 137.785 259.628 137.261C262.097 136.323 264.552 138.618 267.098 139.272C269.007 139.741 271.386 139.473 272.522 141.248C272.859 142.004 273.034 142.835 273.034 143.678C273.034 144.52 272.859 145.351 272.522 146.107C270.383 153.679 267.75 161.07 264.643 168.221C263.401 171.085 261.779 173.649 260.461 176.396C258.946 179.428 258.628 182.628 256.491 185.342C254.355 188.056 250.431 189.966 247.264 188.576C245.679 187.805 244.335 186.534 243.4 184.923C239.445 178.608 242.203 171.873 244.385 165.54C245.961 161.084 256.097 140.645 256.885 139.674Z" fill="white"/>
<path opacity="0.1" d="M290.962 230.173C288.31 230.709 285.159 232.82 282.416 232.25C279.372 230.64 276.084 229.669 272.719 229.385C268.173 228.799 263.431 226.521 259.082 224.979C257.247 224.515 255.544 223.554 254.128 222.182C251.476 219.133 252.264 214.241 252.809 210.052C253.596 203.929 253.478 197.706 252.461 191.624C252.064 188.76 251.388 185.952 250.446 183.248C249.612 181.137 248.309 179.763 248.627 177.25C248.9 175.039 250.279 172.442 252.521 172.224C253.709 172.271 254.864 172.664 255.87 173.364C258.717 175.055 261.784 176.247 264.961 176.899C268.826 177.426 272.748 176.731 276.269 174.892C279.791 173.053 282.768 170.147 284.856 166.512C286.931 162.893 288.992 146.19 294.795 148.502C296.67 149.386 298.348 150.712 299.712 152.388C301.075 154.063 302.092 156.048 302.689 158.202C303.825 162.553 304.296 167.083 304.083 171.605C303.962 183.332 301.856 195.31 300.508 206.953C299.977 211.359 299.356 227.727 294.083 229.168C293.007 229.402 291.992 229.938 290.962 230.173Z" fill="#020202"/>
<path d="M253.34 164.903C252.37 164.236 251.266 163.845 250.126 163.766C248.986 163.687 247.847 163.923 246.809 164.451C245.789 165.018 244.927 165.883 244.319 166.952C243.71 168.021 243.377 169.253 243.355 170.516C243.454 172.236 243.978 173.893 244.87 175.307C245.353 176.236 246.009 177.042 246.794 177.669C248.038 178.49 249.494 178.827 250.931 178.624C252.23 178.572 253.501 178.188 254.643 177.502C256.34 176.446 258.537 173.431 257.976 171.069C257.015 168.553 255.402 166.408 253.34 164.903Z" fill="#FDB9A9"/>
<path d="M300.083 150.412C306.477 162.139 308.705 175.927 310.811 189.396C311.179 191.04 311.246 192.749 311.008 194.422C310.611 195.905 309.868 197.248 308.855 198.315C307.843 199.382 306.594 200.137 305.235 200.504C302.515 201.209 299.704 201.373 296.932 200.989C290.977 200.571 283.916 200.001 278.871 196.181C277.128 194.875 275.598 193.25 273.825 191.993C272.095 190.872 270.298 189.881 268.446 189.028C264.915 187.216 261.547 185.039 258.385 182.528C257.298 181.789 256.392 180.765 255.749 179.546C254.719 177.267 255.522 174.52 256.325 172.174C256.473 171.563 256.804 171.026 257.264 170.65C257.895 170.365 258.603 170.365 259.234 170.65C267.756 173.454 276.444 175.603 285.234 177.083C287.644 177.502 286.583 174.57 286.265 173.045C285.735 170.911 285.31 168.747 284.992 166.562C284.68 163.417 285.069 160.235 286.126 157.294C287.182 154.353 288.874 151.743 291.053 149.692C292.174 148.537 293.594 147.799 295.114 147.581C296.076 147.636 297.017 147.917 297.874 148.405C298.731 148.893 299.484 149.577 300.083 150.412Z" fill="white"/>
<path d="M267.749 122.971C267.52 121.805 267.358 120.625 267.264 119.436C266.749 114.41 266.31 109.183 268.537 104.861C269.459 103.044 270.802 101.532 272.428 100.479C274.053 99.4265 275.903 98.8716 277.787 98.8716C279.672 98.8716 281.522 99.4265 283.147 100.479C284.773 101.532 286.116 103.044 287.038 104.861C288.338 107.569 288.901 110.636 288.659 113.69C288.412 116.729 287.905 119.736 287.144 122.669C286.416 125.786 284.568 127.695 283.507 130.56C283.146 131.793 282.977 133.084 283.007 134.38C283.16 136.314 283.16 138.259 283.007 140.193C281.28 141.448 279.305 142.224 277.25 142.455C276.286 142.437 275.33 142.256 274.416 141.919C273.9 141.805 273.444 141.475 273.143 140.997C273.008 140.579 272.976 140.127 273.053 139.69C273.053 139.272 273.143 138.87 273.143 138.451C273.356 136.361 273.325 134.25 273.053 132.168C272.438 130.542 271.425 129.138 270.128 128.114C268.872 126.714 268.04 124.917 267.749 122.971Z" fill="#FDB9A9"/>
<path opacity="0.1" d="M268.87 125.25C270.918 124.965 272.944 124.512 274.931 123.893C275.613 123.675 276.446 123.49 276.961 124.027C277.193 124.323 277.35 124.681 277.416 125.065C277.663 125.816 277.776 126.612 277.749 127.411C277.629 128.077 277.462 128.733 277.249 129.371C277.152 129.689 277.117 130.027 277.146 130.362C277.174 130.697 277.266 131.021 277.416 131.314C277.901 132.051 278.931 132.286 279.158 133.174C279.386 134.062 278.795 134.413 278.613 135.033C278.416 135.778 278.279 136.54 278.204 137.312C278.189 138.202 278.066 139.087 277.84 139.942C277.676 140.381 277.422 140.773 277.099 141.087C276.776 141.401 276.392 141.628 275.977 141.751C275.557 141.864 275.12 141.872 274.698 141.773C274.276 141.675 273.879 141.473 273.537 141.182C272.659 140.139 272.125 138.799 272.022 137.379L271.204 132.872C270.963 131.304 270.598 129.762 270.113 128.265C269.623 127.226 269.055 126.234 268.416 125.3L268.87 125.25Z" fill="#020202"/>
<path d="M139.882 211.695C139.882 211.695 140.822 215.9 131.806 219.049C122.791 222.199 119.458 211.695 119.458 211.695C119.458 211.695 136.549 204.34 139.882 211.695Z" fill="#2F3554"/>
<path d="M93.5174 317.958L94.5629 313.519L97.2903 302.076C97.3696 301.533 97.5908 301.026 97.9267 300.619C98.3358 300.234 99.6085 304.573 100.154 304.522C103.129 304.335 106.114 304.577 109.033 305.243C109.821 305.41 106.624 354.597 106.351 359.422C105.7 370.479 106.23 392.341 107.7 392.207C104.775 392.475 98.7903 392.844 97.5327 391.386C95.2599 388.873 99.154 372.673 94.9114 353.659C93.868 348.984 93.2888 344.198 93.1841 339.385C93.0174 332.399 91.9568 324.76 93.5174 317.958Z" fill="#EFAC88"/>
<path d="M114.427 372.673C114.759 372.011 115.033 371.315 115.245 370.596C115.942 368.133 115.412 365.57 115.564 363.09C115.654 361.78 115.654 360.464 115.564 359.154C115.321 355.803 114.927 352.452 114.548 349.102C113.897 343.456 112.7 337.576 112.7 331.863C112.7 327.457 115.912 313.619 115.912 313.619L112.7 295.576H129.003C129.003 295.576 131.094 310.654 130.519 312.329C129.331 315.752 128.631 319.357 128.443 323.017C128.443 329.501 127.655 336.068 127.2 342.535C126.685 349.604 126.18 356.674 125.685 363.744C125.503 366.29 125.306 368.77 125.124 371.366C124.985 375.108 125.612 378.836 126.958 382.273C127.473 383.831 128.049 385.757 127.064 387.03C126.079 388.304 123.927 387.868 122.518 387.03C120.516 385.544 118.396 384.26 116.185 383.194C115.307 382.972 114.467 382.593 113.7 382.071C112.185 380.798 112.185 378.252 112.882 376.292C113.335 375.054 113.851 373.846 114.427 372.673Z" fill="#EFAC88"/>
<path d="M124.927 161.603C124.927 161.603 123.079 156.209 127.276 161.603C131.473 166.998 138.216 198.895 138.216 198.895C138.216 198.895 128.776 208.478 126.094 206.585C123.412 204.692 124.927 161.603 124.927 161.603Z" fill="#2F3554"/>
<path d="M120.882 110.725C126.17 113.137 127.458 121.798 127.079 127.276C126.609 134.128 121.412 140.98 123.2 147.866C124.366 151.393 124.911 155.135 124.806 158.889C124.473 162.625 122.382 166.445 119.094 167.266C118.308 167.378 117.539 167.603 116.806 167.936C115.867 168.683 115.142 169.712 114.715 170.901C111.653 177.753 106.259 182.982 99.7146 185.443C93.1841 187.637 85.4567 185.945 80.8353 180.417C76.214 174.888 75.4867 165.49 79.8808 159.727C81.1384 158.052 82.8354 156.527 82.9111 154.383C82.8663 153.392 82.7292 152.41 82.502 151.451C82.259 149.594 82.5494 147.699 83.3324 146.033C84.1153 144.368 85.3512 143.017 86.8658 142.17C89.3204 140.863 92.4417 140.93 94.3357 138.819C96.4569 136.39 95.9418 132.52 95.8509 129.153C94.8963 111.545 106.912 104.375 120.882 110.725Z" fill="#8B2F0C"/>
<path d="M86.4264 257.849C85.1536 271.586 87.3658 285.642 89.5932 299.346C90.1083 302.562 90.7447 306.047 92.9114 308.258C94.6143 309.768 96.638 310.772 98.7904 311.173C112.923 314.793 127.745 313.083 140.897 306.315L137.549 272.139C136.67 263.042 135.716 253.711 132.761 245.133C132.215 243.542 123.67 227.727 125.7 226.37C121.67 229.118 116.988 228.716 112.366 229.905C106.898 231.324 101.635 233.58 96.7297 236.606C94.2162 237.832 92.0365 239.763 90.4071 242.208C88.7777 244.653 87.7554 247.527 87.4416 250.545C86.9828 252.957 86.6438 255.395 86.4264 257.849Z" fill="#7524DD"/>
<path d="M86.4264 257.849C85.1536 271.586 87.3658 285.642 89.5932 299.346C90.1083 302.562 90.7447 306.047 92.9114 308.258C94.6143 309.768 96.638 310.772 98.7904 311.173C112.923 314.793 127.745 313.083 140.897 306.315L137.549 272.139C136.67 263.042 135.716 253.711 132.761 245.133C132.215 243.542 123.67 227.727 125.7 226.37C121.67 229.118 116.988 228.716 112.366 229.905C106.898 231.324 101.635 233.58 96.7297 236.606C94.2162 237.832 92.0365 239.763 90.4071 242.208C88.7777 244.653 87.7554 247.527 87.4416 250.545C86.9828 252.957 86.6438 255.395 86.4264 257.849Z" fill="url(#paint4_linear)"/>
<path d="M120.609 147.028C120.609 147.028 116.503 152.791 116.488 156.326C116.444 158.667 116.155 160.995 115.624 163.262C115.624 163.262 114.973 167.484 112.851 165.842C110.73 164.2 103.275 153.143 103.275 153.143L111.412 141.148L120.609 147.028Z" fill="#EFAC88"/>
<path d="M133.246 248.836C133.246 248.836 131.579 228.313 128.488 220.088C127.63 217.107 127.422 213.943 127.882 210.857C128.503 203.586 130.503 196.617 131.579 189.43C131.907 186.214 131.691 182.959 130.943 179.83C129.811 173.598 128.488 167.411 126.973 161.268C126.84 160.478 126.533 159.736 126.079 159.107C125.562 158.587 124.946 158.204 124.276 157.985L116.17 154.634C117.018 157.515 117.821 160.732 116.654 163.479C116.369 164.281 115.831 164.942 115.139 165.339C113.624 166.026 112.109 164.92 110.897 163.664C109.062 161.691 107.644 159.294 106.745 156.644C106.29 155.262 105.971 153.83 105.791 152.372C105.669 151.334 105.942 149.826 105.23 149.105C104.078 151.35 101.7 152.456 99.8965 154.014C98.0934 155.572 95.7752 157.365 93.5933 159.04C91.7742 160.133 90.2916 161.801 89.3356 163.831C88.8662 165.546 88.8662 167.377 89.3356 169.092C89.7144 171.002 90.3053 172.861 90.6235 174.788C90.9268 177.238 91.1089 179.704 91.169 182.176C91.5324 185.852 92.1247 189.496 92.9418 193.082C93.2493 195.273 93.4365 197.483 93.5024 199.699C93.5024 199.699 96.5328 212.163 95.9267 215.213C95.3206 218.262 89.6538 230.039 89.3356 235.199C89.0174 240.359 91.1538 251.198 91.1538 251.198C91.1538 251.198 96.3964 251.583 102.215 251.834C109.063 252.119 121.488 248.919 122.412 247.897C123.624 246.557 124.291 236.991 124.185 230.608C126.943 240.526 129.109 248.836 129.109 248.836H133.246Z" fill="#2F3554"/>
<path d="M92.9114 261.384C94.0478 261.752 94.4266 262.875 95.2751 264.282C96.4112 266.239 97.458 268.257 98.4115 270.33C98.542 270.474 98.6153 270.67 98.6153 270.874C98.6153 271.078 98.542 271.274 98.4115 271.419C98.2995 271.535 98.1554 271.606 98.0024 271.62C97.0322 272.006 95.9873 272.104 94.972 271.905C94.5824 274.587 94.9529 277.338 96.0327 279.778C96.2903 280.365 96.563 281.152 96.1387 281.621C95.9419 281.789 95.7046 281.888 95.4569 281.906C93.2897 282.061 91.1319 281.476 89.2749 280.231C88.1969 279.707 87.2119 278.975 86.3658 278.07C85.2162 276.56 84.3738 274.795 83.896 272.893C83.896 271.684 84.0026 270.478 84.2142 269.291C84.2142 268.738 84.7294 261.518 84.8809 261.518L91.9114 261.216C92.2503 261.218 92.5872 261.275 92.9114 261.384Z" fill="#FDC099"/>
<path d="M92.9568 258.519L93.5175 261.652L83.7445 263.528V259.926L92.9568 258.519Z" fill="white"/>
<path d="M92.9569 217.323C92.9569 217.323 100.73 196.65 99.6692 189.363C98.6085 182.075 94.1387 165.071 90.8356 165.222C87.5325 165.373 86.487 170.248 86.487 174.771C86.487 179.294 79.8505 220.088 79.4262 223.857C79.002 227.627 83.1687 262.389 83.1687 262.389L94.2296 259.692L92.9569 217.323Z" fill="#2F3554"/>
<path d="M122.7 116.471C122.878 116.586 123.032 116.74 123.155 116.923C123.942 118.43 124.457 120.091 124.67 121.815C126.806 130.192 129.715 138.166 125.549 146.475C125.249 147.16 124.82 147.765 124.291 148.251C123.747 148.666 123.126 148.941 122.473 149.055C119.404 149.755 116.21 149.195 113.488 147.481C111.928 146.658 110.411 145.74 108.942 144.733C108.307 144.238 107.788 143.584 107.427 142.823C107.094 142.036 106.548 141.265 106.775 140.344C106.942 139.707 107.275 139.154 107.397 138.501C107.52 137.481 107.351 136.444 106.912 135.536C106.808 135.341 106.741 135.124 106.715 134.9C106.689 134.675 106.704 134.447 106.76 134.229C107.033 133.509 107.942 133.559 108.639 133.375C109.208 133.137 109.724 132.767 110.152 132.29C110.581 131.813 110.912 131.241 111.124 130.61C111.794 129.112 112.303 127.532 112.639 125.903C112.85 124.496 113.216 123.123 113.73 121.815C114.743 120.019 116.206 118.587 117.942 117.694C119.139 116.923 121.382 115.566 122.7 116.471Z" fill="#FDC099"/>
<path d="M126.079 128.65L126.761 127.997C126.761 127.997 126.958 128.466 127.2 128.416C127.415 128.351 127.624 128.261 127.821 128.148C127.821 128.148 127.443 128.751 127.185 128.801C126.828 128.851 126.466 128.851 126.109 128.801L126.079 128.65Z" fill="#8A3C1F"/>
<path d="M126.67 128.047L126.958 127.477C126.958 127.477 127.185 127.712 127.336 127.612C127.453 127.519 127.559 127.412 127.655 127.293C127.655 127.293 127.564 127.762 127.412 127.863C127.182 127.966 126.944 128.045 126.7 128.097L126.67 128.047Z" fill="#8A3C1F"/>
<path d="M159.959 182.293H131.609L107.306 216.268L134.049 215.078L159.959 182.293Z" fill="#0285F6"/>
<path d="M143.11 210.086C143.145 209.758 143.2 209.434 143.276 209.115C143.634 207.01 143.582 204.846 143.125 202.765C142.666 200.666 141.501 198.839 139.867 197.656C139.743 197.572 139.611 197.504 139.473 197.455C139.256 197.454 139.047 197.546 138.889 197.711C138.731 197.877 138.636 198.102 138.625 198.342C138.621 198.825 138.72 199.301 138.913 199.733C139.412 201.112 139.763 202.552 139.958 204.022L138.534 202.229C138.142 201.641 137.62 201.174 137.019 200.872C136.707 200.738 136.36 200.744 136.052 200.888C135.743 201.032 135.498 201.302 135.367 201.643C135.295 202.058 135.348 202.488 135.519 202.866L136.852 207.138C136.233 205.77 135.242 204.651 134.018 203.938C133.775 204.308 133.643 204.754 133.643 205.211C133.643 205.669 133.775 206.115 134.018 206.484C134.501 207.252 134.912 208.072 135.246 208.93C134.928 208.514 134.639 208.072 134.382 207.607C134.064 207.188 133.458 206.92 133.094 207.289C132.731 207.657 132.852 208.176 132.958 208.629C133.87 211.832 134.23 215.196 134.018 218.547L135.716 218.128C137.058 217.634 138.329 216.929 139.488 216.034C140.452 215.4 141.277 214.538 141.904 213.51C142.53 212.482 142.942 211.312 143.11 210.086Z" fill="#EFAC88"/>
<path d="M319.963 207.288C320.478 206.803 321.281 206.434 321.796 206.92C321.954 207.116 322.073 207.348 322.143 207.6C322.214 207.851 322.235 208.116 322.205 208.377V211.376C326.826 209.818 330.311 205.714 333.705 201.927C334.418 201.123 335.463 200.252 336.342 200.822C336.659 201.081 336.897 201.442 337.025 201.855C337.152 202.268 337.162 202.714 337.054 203.134C336.794 203.941 336.616 204.779 336.524 205.63C336.524 207.004 337.418 208.193 337.539 209.55C337.675 211.225 336.645 212.733 336.509 214.408V216.084C336.28 217.105 335.827 218.049 335.19 218.831C333.665 221.376 331.64 223.506 329.266 225.063C327.641 225.845 325.92 226.359 324.16 226.588L318.66 227.626C318.123 227.778 317.56 227.778 317.023 227.626C315.372 227.007 314.856 224.025 314.917 222.383C315.159 220.851 315.674 219.387 316.432 218.077C317.569 214.593 317.22 209.835 319.963 207.288Z" fill="#A67C52"/>
<path d="M157.201 188.827C156.837 188.19 156.171 187.587 155.549 187.872C155.346 188.008 155.17 188.191 155.034 188.407C154.899 188.624 154.806 188.869 154.762 189.128L153.928 191.976C149.928 188.978 147.701 183.918 145.489 179.177C145.019 178.172 144.261 177.016 143.261 177.267C142.9 177.419 142.589 177.69 142.373 178.044C142.156 178.398 142.043 178.817 142.049 179.244C142.07 180.097 142.014 180.95 141.882 181.791C141.519 183.097 140.367 183.952 139.852 185.141C139.276 186.682 139.852 188.492 139.534 190.167C139.428 190.703 139.216 191.222 139.14 191.842C139.079 192.892 139.262 193.941 139.67 194.891C140.433 197.826 141.791 200.53 143.64 202.799C144.982 204.073 146.482 205.128 148.095 205.931L153.08 208.729C153.542 209.032 154.06 209.215 154.595 209.265C156.337 209.265 157.625 206.551 158.019 204.96C158.201 203.427 158.124 201.871 157.792 200.37C157.519 196.6 159.11 192.228 157.201 188.827Z" fill="#A67C52"/>
<path d="M204.535 461.397C204.557 461.531 204.598 461.661 204.657 461.782C205.338 463.725 207.505 464.379 209.384 464.613C211.134 464.842 212.895 464.937 214.657 464.898C215.494 464.921 216.328 464.791 217.127 464.513C217.873 464.157 218.572 463.689 219.202 463.122L224.263 458.967C225.692 457.893 226.99 456.62 228.127 455.181C229.269 453.727 229.865 451.845 229.794 449.921C229.746 448.965 229.427 448.049 228.883 447.304C228.34 446.559 227.598 446.021 226.763 445.766C225.703 445.649 224.634 445.683 223.581 445.867C221.415 445.984 218.384 444.996 217.521 442.516C217.292 441.46 216.761 440.513 216.005 439.819C215.269 439.454 214.449 439.349 213.657 439.517C211.893 439.596 210.15 439.975 208.49 440.64C207.659 440.97 206.906 441.503 206.287 442.199C205.668 442.895 205.199 443.736 204.914 444.661C204.717 445.519 204.641 446.406 204.687 447.291C204.778 449.104 204.778 450.922 204.687 452.735C204.442 455.015 204.325 457.309 204.338 459.604C204.351 460.207 204.417 460.808 204.535 461.397Z" fill="#262836"/>
<path d="M253.719 462.1C250.309 463.826 246.802 465.303 243.218 466.523C241.781 467.209 240.171 467.31 238.673 466.808C238.076 466.478 237.552 466.007 237.138 465.428C236.724 464.849 236.431 464.176 236.279 463.457C235.959 462.04 235.826 460.578 235.885 459.118C235.885 456.689 236.794 454.813 237.142 452.501C237.461 450.491 237.718 448.463 237.976 446.453C238.339 443.572 238.673 440.69 239.006 437.792L248.097 439.953C249.052 440.171 249.961 444.242 250.521 445.096C250.955 445.725 251.508 446.242 252.141 446.61C252.775 446.977 253.474 447.187 254.188 447.224C255.703 447.307 257.325 446.52 258.885 446.805C259.89 447.078 260.786 447.708 261.437 448.597C262.088 449.486 262.459 450.587 262.491 451.73C262.478 452.873 262.253 454 261.831 455.043C261.409 456.086 260.798 457.023 260.037 457.795C258.499 459.322 256.743 460.556 254.84 461.447L253.719 462.1Z" fill="#262836"/>
<path d="M253.794 450.859C251.406 452.362 248.925 453.678 246.37 454.796L246.112 454.913C241.9 456.723 237.188 449.418 237.188 449.418C237.188 449.418 231.233 408.742 231.506 391.889C231.688 380.313 229.218 363.811 225.445 333.873C224.506 364.448 219.824 377.883 221.021 388.84C222.839 405.509 220.672 446.905 220.672 446.905C220.672 446.905 216.687 454.964 212.308 453.875H212.051C209.42 453.209 206.837 452.33 204.323 451.244C204.323 451.244 199.232 394.285 199.232 379.207C199.232 364.129 199.793 350.727 199.793 350.727L197.141 303.098L208.49 284.888L209.414 284.452L210.293 283.497L222.869 273.295C222.869 273.295 222.869 275.674 222.642 279.745L232.4 285.541L233.354 286.329L234.309 286.597L250.688 289.763C250.688 289.763 254.991 362.772 256.37 377.716C257.749 392.659 253.794 450.859 253.794 450.859Z" fill="#0286F5"/>
<path d="M253.794 450.859C251.406 452.362 248.925 453.678 246.37 454.796L246.112 454.913C241.9 456.723 237.188 449.418 237.188 449.418C237.188 449.418 231.233 408.742 231.506 391.889C231.688 380.313 229.218 363.811 225.445 333.873C224.506 364.448 219.824 377.883 221.021 388.84C222.839 405.509 220.672 446.905 220.672 446.905C220.672 446.905 216.687 454.964 212.308 453.875H212.051C209.42 453.209 206.837 452.33 204.323 451.244C204.323 451.244 199.232 394.285 199.232 379.207C199.232 364.129 199.793 350.727 199.793 350.727L197.141 303.098L208.49 284.888L209.414 284.452L210.293 283.497L222.869 273.295C222.869 273.295 222.869 275.674 222.642 279.745L232.4 285.541L233.354 286.329L234.309 286.597L250.688 289.763C250.688 289.763 254.991 362.772 256.37 377.716C257.749 392.659 253.794 450.859 253.794 450.859Z" fill="url(#paint5_linear)"/>
<path d="M240.218 162.709C241.249 163.848 242.794 165.021 242.37 166.529C242.143 167.333 241.37 167.802 240.855 168.371C240.115 169.198 239.531 170.179 239.138 171.258C238.745 172.336 238.551 173.491 238.567 174.654C238.63 176.926 238.338 179.193 237.703 181.355C237.348 182.44 236.666 183.356 235.773 183.951C234.879 184.546 233.827 184.783 232.794 184.622C231.597 184.253 230.4 183.114 229.248 183.65C228.369 184.069 228.097 185.325 227.642 186.163C226.989 187.243 226.074 188.098 225.003 188.631C223.931 189.164 222.746 189.354 221.581 189.178C219.263 188.807 217.028 187.961 214.99 186.682C214.118 186.312 213.364 185.665 212.824 184.823C212.472 184.015 212.386 183.096 212.581 182.226C213.005 179.562 214.672 177.368 216.021 175.072C218.521 170.83 220.021 165.964 220.384 160.916C220.627 157.398 220.384 153.528 222.43 150.865C225.203 147.162 231.9 147.196 235.339 149.91C239.294 152.707 237.051 159.073 240.218 162.709Z" fill="#A67C52"/>
<path d="M236.112 146.777C235.705 147.65 235.093 148.385 234.339 148.904C232.824 149.893 231.521 151.049 230.051 152.138C228.662 153.17 227.686 154.754 227.324 156.561C226.703 159.911 228.339 163.412 227.324 166.612C226.975 167.249 226.006 166.864 225.612 166.227C225.218 165.59 225.021 164.786 224.43 164.401C223.43 163.764 222.203 164.836 221.778 166.076C221.334 167.46 221.39 168.98 221.935 170.319C222.48 171.658 223.471 172.713 224.703 173.263C224.566 174.285 223.354 174.704 222.415 174.553C221.482 174.269 220.518 174.134 219.551 174.151C217.384 174.603 216.521 178.021 214.399 178.373C213.652 178.313 212.927 178.067 212.278 177.652C211.63 177.237 211.076 176.664 210.657 175.977L208.02 172.627C207.601 172.029 207.14 171.469 206.642 170.951C206.051 170.432 205.126 170.398 204.581 169.779C204.036 169.159 204.581 167.735 204.051 166.964C203.787 166.697 203.478 166.492 203.142 166.361C202.382 165.938 201.778 165.24 201.43 164.382C201.083 163.525 201.013 162.561 201.232 161.653C201.293 161.424 201.293 161.18 201.232 160.95C201.141 160.648 200.808 160.497 200.535 160.347C199.729 159.788 199.132 158.926 198.853 157.92C198.575 156.914 198.634 155.83 199.02 154.868C199.445 153.749 200.068 152.735 200.854 151.886C201.144 151.425 201.543 151.06 202.008 150.833C202.473 150.605 202.986 150.524 203.49 150.596L203.899 146.408C203.935 145.556 204.12 144.719 204.445 143.946C205.308 142.27 207.293 141.835 208.99 141.617L208.263 138.132C208.177 137.919 208.133 137.688 208.133 137.454C208.133 137.22 208.177 136.989 208.263 136.775C208.493 136.466 208.815 136.258 209.172 136.189C210.194 135.89 211.239 135.699 212.293 135.619C211.898 134.653 211.599 133.642 211.399 132.604C211.354 132.406 211.354 132.199 211.399 132.001C211.49 131.813 211.629 131.66 211.799 131.561C211.97 131.463 212.163 131.423 212.354 131.448C212.739 131.531 213.135 131.531 213.521 131.448C213.521 131.448 212.945 128.533 212.915 128.265C212.823 127.808 212.815 127.336 212.89 126.876C212.965 126.415 213.123 125.976 213.354 125.584C213.662 125.179 214.06 124.869 214.508 124.684C214.957 124.499 215.442 124.445 215.915 124.529C216.857 124.717 217.763 125.079 218.596 125.601C218.506 124.479 219.809 123.926 220.854 123.825C222.802 123.701 224.746 124.125 226.505 125.056C228.264 125.988 229.782 127.397 230.915 129.153C231.093 129.466 231.307 129.754 231.551 130.007C232.016 130.344 232.528 130.593 233.066 130.744C233.885 131.147 234.612 131.744 235.196 132.495C235.78 133.245 236.207 134.129 236.445 135.083C236.886 136.986 237.065 138.952 236.976 140.913C237.024 142.416 236.897 143.92 236.597 145.386C236.482 145.868 236.319 146.334 236.112 146.777Z" fill="#2F3554"/>
<path d="M221.733 183.03C224.14 184.151 226.478 185.444 228.733 186.9C229.428 187.308 230.033 187.88 230.506 188.575C230.751 188.962 230.902 189.411 230.944 189.881C230.987 190.35 230.919 190.824 230.748 191.256C230.112 192.462 228.688 192.01 227.581 191.591C222.475 189.346 216.975 189.145 211.733 189.162C211.371 189.221 211.003 189.169 210.666 189.012C210.329 188.856 210.038 188.6 209.823 188.274C209.696 187.885 209.648 187.47 209.685 187.058C209.722 186.646 209.841 186.249 210.036 185.895C212.808 179.814 217.263 180.785 221.733 183.03Z" fill="white"/>
<path d="M320.766 230.19C319.723 233.069 318.178 235.693 316.22 237.913C314.356 240.242 312.417 242.486 310.402 244.614C305.657 249.707 300.643 254.485 295.386 258.921C291.644 262.121 287.644 265.27 282.977 266.276C281.12 266.762 279.174 266.628 277.386 265.89C275.905 265.052 274.58 263.916 273.477 262.54C272.128 261.065 256.673 241.397 256.416 241.397C255.543 241.916 254.87 242.767 254.522 243.793C252.282 248.897 250.901 254.409 250.446 260.06C250.264 262.592 250.264 265.135 250.446 267.666C251.052 276.26 253.779 285.123 251.082 293.231C250.556 294.955 249.668 296.517 248.491 297.788C247.351 298.877 246.042 299.729 244.627 300.301C242.139 301.44 239.542 302.26 236.885 302.747C235.383 303.048 233.864 303.233 232.339 303.3C226.688 303.534 221.051 302.311 215.399 302.629C210.581 302.897 205.823 304.305 201.005 304.087C200.118 304.164 199.226 304.023 198.393 303.676C197.56 303.328 196.807 302.782 196.187 302.077C195.642 301.15 195.304 300.093 195.202 298.994C193.323 287.607 192.354 276.058 192.308 264.483C192.308 259.139 191.52 239.605 189.899 236.003C189.702 235.567 189.49 235.35 189.278 235.417C183.883 237.092 172.307 240.443 166.822 241.515C166.029 241.727 165.207 241.772 164.398 241.649C163.565 241.413 162.79 240.979 162.125 240.376C155.337 234.864 151.519 226.655 149.11 218.01C148.64 216.335 148.216 214.66 147.822 212.985C147.616 212.538 147.491 212.051 147.456 211.552C147.42 211.052 147.475 210.549 147.615 210.073C147.756 209.597 147.981 209.156 148.276 208.776C148.572 208.395 148.932 208.084 149.337 207.858C149.429 207.798 149.525 207.747 149.625 207.707L159.792 200.47L167.368 211.158C168.883 213.236 170.61 215.481 173.02 215.782C176.323 216.151 178.808 212.834 180.838 210.003C187.42 200.86 195.861 193.564 205.475 188.71C206.885 187.96 208.37 187.398 209.899 187.034L210.278 186.934C210.497 186.866 210.72 186.815 210.945 186.783C212.921 186.584 214.913 186.714 216.854 187.168C229.756 189.577 242.521 192.816 255.082 196.868C256.585 197.116 258.015 197.752 259.255 198.724C260.494 199.696 261.51 200.977 262.219 202.464C265.749 208.344 269.189 214.291 272.734 220.172C275.765 225.197 278.795 231.564 283.34 235.249C293.171 230.845 302.449 225.062 310.947 218.044C312.144 217.055 313.659 215.983 315.038 216.637C315.479 216.876 315.875 217.206 316.205 217.608C319.463 221.21 322.402 224.728 320.766 230.19Z" fill="white"/>
<path d="M394.298 190.804C392.95 192.074 391.326 192.934 389.586 193.3C387.994 193.371 386.408 193.062 384.934 192.395L362.388 184.019C360.688 185.483 359.552 187.605 359.209 189.958C358.866 192.311 359.342 194.72 360.539 196.701C362.449 199.632 365.737 201.023 368.812 202.246L384.267 208.394C387.304 209.781 390.502 210.689 393.767 211.091C398.313 211.426 402.752 209.818 407.071 208.227C411.692 206.551 416.753 204.424 418.965 199.616C421.177 194.808 419.571 188.475 420.223 182.863C420.662 179.211 422.117 175.709 422.056 172.024C421.98 168.874 419.707 164.133 416.313 164.786C413.389 165.356 411.435 170.985 409.889 173.347C405.539 180.022 400.279 185.91 394.298 190.804Z" fill="white"/>
<path d="M359.57 182.662C359.319 181.997 358.96 181.389 358.509 180.869C358.277 180.615 357.983 180.44 357.663 180.366C357.344 180.291 357.011 180.321 356.706 180.45C356.409 180.654 356.171 180.945 356.018 181.292C355.865 181.639 355.804 182.027 355.842 182.41C355.874 182.674 355.82 182.941 355.691 183.164C355.592 183.245 355.476 183.296 355.354 183.314C355.232 183.331 355.108 183.314 354.994 183.265C352.433 182.712 349.842 182.293 347.236 182.008C347.02 181.975 346.801 181.975 346.584 182.008C346.16 182.173 345.808 182.511 345.602 182.954C345.397 183.396 345.352 183.909 345.478 184.387C345.763 185.335 346.188 186.224 346.736 187.017C348.054 189.413 348.554 192.579 350.675 194.137C351.968 194.962 353.465 195.308 354.948 195.126C356.464 195.042 357.903 194.74 359.388 194.807C360.376 195.044 361.408 194.921 362.327 194.456C362.668 194.17 362.939 193.796 363.116 193.366C363.294 192.936 363.371 192.464 363.343 191.993C363.19 190.511 362.705 189.095 361.933 187.872C361.115 186.163 360.327 184.421 359.57 182.662Z" fill="#FDB9A9"/>
<path d="M422.45 370.345C413.813 368.183 415.51 381.737 413.238 386.762C411.802 389.302 410 391.566 407.904 393.464C405.95 395.574 404.116 398.154 404.01 401.153C403.95 401.733 404.056 402.319 404.313 402.829C404.751 403.411 405.355 403.813 406.025 403.968C410.966 405.541 416.265 404.941 420.814 402.292C422.944 401.165 424.714 399.348 425.89 397.082C426.834 394.652 427.279 392.02 427.193 389.376C427.39 383.814 429.647 372.12 422.45 370.345Z" fill="#FDB9A9"/>
<path d="M414.814 398.221C414.814 398.221 390.237 399.377 400.646 407.921C411.056 416.466 426.587 405.827 428.102 403.884C429.617 401.941 428.39 398.607 428.39 398.607L414.814 398.221Z" fill="#7524DD"/>
<path d="M427.041 401.974C424.844 404.923 413.298 408.893 408.192 408.491C403.086 408.089 398.495 405.442 398.995 401.79C399.495 398.138 408.525 389.644 410.223 389.661C411.92 389.677 413.253 394.033 416.677 394.938C418.207 395.209 419.774 395.044 421.23 394.458C422.686 393.871 423.982 392.883 424.996 391.587C425.305 391.118 425.751 390.781 426.26 390.634C426.768 390.488 427.306 390.54 427.784 390.783C428.965 392.71 429.238 399.026 427.041 401.974Z" fill="white"/>
<path d="M452.072 375.689C443.436 373.477 445.133 387.014 442.86 392.04C441.439 394.616 439.636 396.91 437.526 398.824C435.572 400.935 433.754 403.515 433.647 406.514C433.58 407.092 433.681 407.679 433.935 408.189C434.371 408.783 434.983 409.187 435.663 409.329C440.598 410.894 445.89 410.294 450.436 407.653C452.566 406.526 454.336 404.709 455.512 402.443C456.456 400.013 456.901 397.38 456.815 394.737C457.012 389.091 459.269 377.364 452.072 375.689Z" fill="#FDB9A9"/>
<path d="M444.435 403.448C444.435 403.448 419.859 404.588 430.268 413.132C440.678 421.676 456.224 411.071 457.724 409.111C459.224 407.151 458.012 403.817 458.012 403.817L444.435 403.448Z" fill="#7524DD"/>
<path d="M456.663 407.134C454.466 410.116 442.92 414.07 437.814 413.668C432.708 413.266 428.117 410.635 428.617 406.966C429.117 403.298 438.148 394.804 439.845 394.821C441.542 394.837 442.875 399.193 446.299 400.081C447.829 400.353 449.396 400.187 450.852 399.601C452.308 399.014 453.604 398.026 454.618 396.73C454.927 396.261 455.373 395.924 455.882 395.777C456.39 395.631 456.928 395.683 457.406 395.926C458.587 397.92 458.86 404.169 456.663 407.134Z" fill="white"/>
<path d="M429.814 252.454L441.36 386.796L458.027 384.518C464.603 351.749 462.997 253.661 462.997 253.661L429.814 252.454Z" fill="black"/>
<path d="M441.359 248.819L429.814 383.161L413.147 380.882C403.631 295.878 411.465 242.956 411.465 242.956L441.359 248.819Z" fill="black"/>
<path d="M412.92 200.235C412.723 197.773 412.132 195.327 411.889 192.814C411.346 187.743 411.433 182.614 412.147 177.569C412.93 172.197 414.394 166.975 416.495 162.055C418.42 157.8 421.89 155.991 425.784 153.863C429.047 151.906 432.587 150.575 436.254 149.926C438.846 149.663 441.46 149.821 444.011 150.395C451.845 152.071 462.194 156.527 467.542 163.362C471.573 168.505 472.088 175.86 472.179 182.662C472.35 192.054 472.174 201.436 471.648 210.806C471.648 212.163 471.497 213.52 471.406 214.877C470.679 225.164 469.891 235.835 467.27 245.77C466.436 248.886 465.557 252.019 462.951 253.694C456.89 257.648 447.421 255.47 440.799 254.448C431.996 253.057 422.965 251.617 415.162 246.909C413.54 246.119 412.225 244.718 411.45 242.955C410.768 240.844 411.601 238.549 412.192 236.405C414.829 226.805 412.783 216.72 412.783 206.92C412.783 205.144 412.995 203.335 412.995 201.559C412.98 201.123 412.92 200.671 412.92 200.235Z" fill="white"/>
<path opacity="0.1" d="M437.526 245.334C437.467 244.307 437.694 243.283 438.178 242.403C439.178 241.046 441.087 241.331 442.617 241.749L452.512 244.463C456.254 245.485 461.997 249.489 462.966 253.661C466.769 250.712 467.754 245.753 468.466 240.677C469.179 235.601 469.209 225.7 469.982 220.574C465.143 224.423 459.378 226.593 453.421 226.806C447.799 226.973 440.738 226.806 438.693 220.105C436.344 212.264 435.526 204.039 433.966 195.997C433.97 195.811 433.935 195.627 433.865 195.458C433.795 195.289 433.691 195.14 433.561 195.022C433.431 194.904 433.279 194.82 433.115 194.777C432.951 194.734 432.781 194.733 432.617 194.774L411.253 195.026C410.92 195.008 410.588 195.077 410.283 195.227C409.662 195.645 409.662 196.634 409.768 197.421C410.562 202.759 412.984 207.636 416.632 211.242C418.374 212.918 419.511 214.023 419.844 216.519C420.253 219.468 420.147 222.601 420.42 225.6C420.887 231.901 422.136 238.102 424.132 244.028C427.193 252.454 436.95 259.038 437.526 245.334Z" fill="#020202"/>
<path d="M431.693 252.153H399.889L395.934 197.471H427.753L431.693 252.153Z" fill="#028BED"/>
<path d="M429.844 136.44C429.861 133.859 430.007 131.281 430.283 128.717C430.496 126.489 430.814 124.244 431.208 122.016C431.228 121.37 431.374 120.737 431.636 120.158C431.897 119.58 432.268 119.071 432.723 118.666C435.843 116.536 439.451 115.443 443.117 115.516C445.307 115.135 447.544 115.731 449.337 117.173C451.13 118.615 452.332 120.785 452.678 123.206C452.751 123.682 452.786 124.164 452.784 124.646C453.33 130.292 452.011 135.921 451.269 141.533C450.691 145.88 450.483 150.278 450.648 154.668C448.727 156.079 446.52 156.943 444.223 157.18C443.151 157.179 442.086 156.981 441.072 156.594C440.787 156.536 440.516 156.415 440.274 156.24C440.032 156.064 439.824 155.837 439.663 155.572C439.506 155.106 439.47 154.602 439.556 154.115C439.614 153.659 439.65 153.201 439.663 152.741C439.829 150.173 439.784 147.593 439.526 145.035C439.533 144.927 439.519 144.819 439.485 144.718C439.451 144.617 439.398 144.525 439.329 144.448C439.171 144.398 439.003 144.398 438.844 144.448H438.193C437.038 144.549 435.878 144.549 434.723 144.448C433.34 144.281 432.056 143.574 431.102 142.455C430.005 140.7 429.556 138.549 429.844 136.44Z" fill="#FDB9A9"/>
<path d="M434.557 119.888C433.751 120.257 432.847 120.257 432.041 119.888C431.196 119.389 430.497 118.633 430.026 117.711C429.08 116.137 428.734 114.214 429.063 112.36C429.392 110.506 430.37 108.871 431.784 107.81C432.873 106.962 434.103 106.362 435.404 106.046C436.705 105.729 438.049 105.702 439.36 105.967C440.049 105.481 440.824 105.161 441.632 105.029C444.759 103.976 448.065 103.752 451.284 104.375C453.11 104.962 454.825 105.91 456.345 107.173C457.818 108.249 459.072 109.652 460.027 111.294C460.949 113.4 461.528 115.668 461.739 117.995C462.232 120.484 462.501 123.02 462.542 125.568C462.538 126.68 462.348 127.782 461.981 128.818C461.525 129.963 460.871 130.998 460.057 131.867C458.862 133.194 457.499 134.322 456.012 135.217C454.981 135.854 453.784 136.507 453.436 137.764C453.332 138.349 453.281 138.944 453.284 139.54C453.224 140.416 452.904 141.246 452.375 141.902C452.011 142.337 451.39 143.393 450.86 143.577C450.33 143.761 449.875 143.024 449.723 142.421C449.075 139.882 449.235 137.173 450.178 134.748C450.846 133.566 451.236 132.219 451.314 130.828C451.193 129.471 449.511 128.382 448.708 129.153C447.905 129.923 447.754 131.934 446.754 131.549C447.89 127.628 446.42 122.703 443.011 121.162C441.189 120.554 439.293 120.26 437.39 120.291C436.482 120.087 435.559 119.975 434.632 119.955L434.557 119.888Z" fill="#DD8049"/>
<path d="M438.223 144.348C440.917 143.785 443.551 142.92 446.087 141.768C446.314 150.831 439.647 152.707 439.647 152.707C439.814 150.139 439.768 147.56 439.511 145.001C439.518 144.785 439.447 144.574 439.314 144.415C439.156 144.365 438.988 144.365 438.829 144.415H438.223V144.348Z" fill="#DE9F93"/>
<path d="M477.618 195.578L481.406 213.906C481.799 215.43 481.967 217.014 481.906 218.597C481.634 221.562 479.8 224.008 478.043 226.253C475.881 229.42 473.165 232.075 470.057 234.06C467.902 235.113 465.612 235.791 463.269 236.07C457.079 237.108 450.813 237.495 444.557 237.226C444.062 237.239 443.57 237.13 443.117 236.908C442.666 236.587 442.292 236.15 442.026 235.635C439.837 231.979 437.955 228.11 436.405 224.075C441.418 220.342 446.922 217.488 452.724 215.615C453.894 215.374 454.986 214.796 455.89 213.94C456.48 213.124 456.871 212.155 457.027 211.125C459.497 199.398 453.8 186.331 458.36 175.391C460.951 169.159 466.482 162.475 470.482 170.801C474.255 178.39 475.891 187.235 477.618 195.578Z" fill="white"/>
<path d="M432.056 224.209C431.373 223.64 430.649 223.136 429.89 222.701C429.505 222.489 429.078 222.388 428.649 222.408C428.219 222.429 427.802 222.57 427.435 222.819C427.102 223.087 426.844 223.522 426.435 223.673C426.166 223.74 425.886 223.74 425.617 223.673L420.556 223.103C420.156 222.994 419.739 222.988 419.337 223.087C418.934 223.186 418.558 223.386 418.238 223.673C417.586 224.494 417.98 225.784 418.42 226.772C419.718 229.686 421.165 232.516 422.753 235.249C423.042 235.808 423.404 236.316 423.829 236.757C424.412 237.243 425.084 237.58 425.799 237.745C428.407 238.412 431.13 238.285 433.678 237.377C436.208 236.459 438.569 235.046 440.647 233.205C440.945 232.962 441.206 232.668 441.42 232.334C441.629 231.923 441.754 231.465 441.784 230.994C442.026 228.833 441.405 225.348 438.86 225.499C436.525 225.954 434.12 225.498 432.056 224.209Z" fill="#FDB9A9"/>
<path d="M112.806 376.778C112.91 376.592 113.064 376.445 113.245 376.359C113.669 376.208 114.063 376.627 114.351 376.995C116.973 380.346 120.897 382.021 124.655 383.529C124.882 383.613 125.17 383.696 125.352 383.529C125.533 383.361 125.533 383.177 125.609 383.01C125.748 382.802 125.947 382.653 126.174 382.589C126.4 382.525 126.64 382.549 126.852 382.658C127.264 382.902 127.638 383.219 127.958 383.596C129.473 385.137 131.64 385.757 133.306 387.131C133.75 387.433 134.087 387.894 134.261 388.438C134.318 388.737 134.306 389.047 134.227 389.339C134.147 389.632 134.003 389.898 133.806 390.113C133.393 390.566 132.864 390.87 132.291 390.984C131.249 391.221 130.179 391.266 129.124 391.118C123.882 390.682 118.659 390.068 113.457 389.275C113.051 389.244 112.655 389.124 112.291 388.923C111.89 388.566 111.578 388.102 111.384 387.574C111.191 387.046 111.122 386.473 111.185 385.908C111.243 384.412 111.4 382.922 111.654 381.452C111.622 379.803 112.022 378.18 112.806 376.778Z" fill="#262836"/>
<path d="M97.9874 387.181C98.5885 387.567 99.2528 387.818 99.942 387.918C101.132 388.244 102.37 388.296 103.578 388.069C104.18 387.945 104.737 387.633 105.182 387.17C105.628 386.707 105.945 386.112 106.094 385.456C106.094 385.054 106.366 384.484 106.685 384.668C106.756 384.725 106.813 384.799 106.851 384.886C107.688 386.68 108.134 388.665 108.154 390.683C108.324 391.76 108.241 392.868 107.912 393.899C107.646 394.467 107.266 394.96 106.801 395.34C106.336 395.721 105.799 395.978 105.23 396.094C104.104 396.328 102.947 396.328 101.821 396.094C100.851 395.926 99.8966 395.725 98.9571 395.457C98.5377 395.392 98.1408 395.207 97.8056 394.921C97.5225 394.622 97.3049 394.255 97.1692 393.849C96.3957 391.855 96.1083 389.671 96.3359 387.516C96.377 387.059 96.4479 386.605 96.548 386.159C96.548 385.958 96.6692 385.07 96.9268 385.171C97.1844 385.271 97.1238 385.389 97.1238 385.59C97.1283 385.801 97.1642 386.011 97.2298 386.21C97.3915 386.608 97.6548 386.946 97.9874 387.181Z" fill="#262836"/>
<path d="M265.022 100.489C264.768 99.2357 264.958 97.9229 265.552 96.8197C266.047 96.1839 266.692 95.7138 267.416 95.4628C268.17 95.1476 268.952 94.9229 269.749 94.7926C270.146 94.7536 270.532 94.6284 270.886 94.4241C271.171 94.1558 271.417 93.8392 271.613 93.4859C272.201 92.7674 272.935 92.2125 273.753 91.8661C274.572 91.5197 275.453 91.3917 276.325 91.4923C278.068 91.4923 279.78 92.0619 281.522 92.1457C283.265 92.2294 285.371 91.8776 286.947 92.9498C288.152 93.9469 288.978 95.404 289.265 97.0375C289.876 96.9421 290.498 97.1035 291.007 97.4899C291.962 98.4615 291.007 100.438 291.841 101.594C292.235 102.147 292.932 102.382 293.356 102.968C293.627 103.527 293.708 104.175 293.583 104.794C293.543 105.476 293.457 106.154 293.326 106.821C292.901 108.664 291.81 110.172 291.295 112.031C291.038 113.003 290.977 114.025 290.765 114.997C290.172 117.149 289.222 119.16 287.962 120.927C288.837 116.522 288.935 111.971 288.25 107.525C288.263 107.32 288.22 107.115 288.125 106.939C288.03 106.762 287.889 106.621 287.719 106.536C287.477 106.473 287.222 106.515 287.007 106.654C282.973 108.416 278.518 108.611 274.371 107.207C273.192 106.627 271.897 106.396 270.613 106.536C270.096 106.707 269.59 106.914 269.098 107.156C268.58 107.374 268.009 107.374 267.492 107.156C267.385 107.402 267.328 107.671 267.325 107.944C266.34 107.692 266.401 106.118 266.128 105.246C265.623 103.703 265.253 102.11 265.022 100.489Z" fill="#2F3554"/>
<path d="M291.189 116.454C291.292 116.626 291.359 116.82 291.386 117.024C291.595 118.175 291.405 119.37 290.856 120.374C290.322 121.391 289.525 122.208 288.568 122.72C288.32 122.879 288.044 122.976 287.759 123.005C287.474 123.034 287.186 122.994 286.916 122.887C286.653 122.688 286.435 122.424 286.28 122.116C286.125 121.807 286.037 121.464 286.022 121.111C285.878 120.397 285.877 119.657 286.018 118.942C286.159 118.228 286.44 117.556 286.841 116.973C287.185 116.59 287.596 116.288 288.049 116.086C288.503 115.885 288.989 115.788 289.477 115.801C289.788 115.765 290.103 115.806 290.398 115.918C290.694 116.031 290.964 116.214 291.189 116.454Z" fill="#FDB9A9"/>
<path d="M276.128 132.369C276.204 133.056 275.719 133.659 275.658 134.346C275.598 135.033 275.658 135.854 275.658 136.608C275.627 137.56 275.343 138.481 274.84 139.255C274.238 139.927 273.476 140.397 272.643 140.612C270.937 141.317 269.131 141.68 267.31 141.684C266.556 141.637 265.807 141.53 265.067 141.366C263.87 141.148 260.764 141.265 260.522 139.456C260.595 138.464 260.842 137.496 261.249 136.608C261.385 136.122 261.507 135.636 261.628 135.15C261.749 134.665 261.916 133.944 262.037 133.341C262.613 130.46 263.007 127.243 265.067 125.283C265.582 124.764 266.446 124.395 266.916 124.965C267.386 125.534 267.219 126.355 267.764 126.506C267.956 126.523 268.148 126.489 268.325 126.405C270.352 125.387 272.573 124.933 274.795 125.082C275.212 125.107 275.616 125.247 275.971 125.49C276.326 125.733 276.62 126.071 276.825 126.472C277.416 128.148 275.477 129.823 275.946 131.498C276.037 131.78 276.098 132.072 276.128 132.369Z" fill="#FDB9A9"/>
<path d="M271.643 196.767C271.237 196.316 270.791 195.912 270.31 195.561C270.613 201.777 271.537 208.277 274.977 213.202C275.873 214.33 276.707 215.516 277.477 216.754C278.992 219.568 279.113 223.22 281.052 225.7C282.756 227.506 284.928 228.678 287.265 229.05C289.302 229.835 291.532 229.74 293.507 228.782C295.079 227.479 296.24 225.662 296.826 223.589C298.144 220.121 300.568 215.112 298.568 211.359C297.144 208.696 292.659 206.585 289.932 206.585C286.187 205.532 282.528 204.137 278.992 202.413C277.224 201.742 275.566 200.757 274.083 199.498C273.204 198.677 272.477 197.655 271.643 196.767Z" fill="white"/>
<path opacity="0.1" d="M191.308 222.433C190.248 226.226 189.792 230.194 189.959 234.16C189.965 234.763 189.909 235.364 189.793 235.953C189.596 235.517 189.384 235.299 189.171 235.366C183.777 237.042 172.201 240.392 166.716 241.464C165.923 241.676 165.101 241.722 164.292 241.598C163.459 241.363 162.684 240.928 162.019 240.325C155.231 234.813 151.413 226.604 149.004 217.96C149.174 216.463 149.473 214.988 149.898 213.554C153.125 215.481 154.807 219.434 156.822 222.835C158.764 226.142 161.156 229.097 163.913 231.597C164.461 232.158 165.112 232.581 165.822 232.837C166.663 233.016 167.529 232.975 168.353 232.719C176.595 230.994 185.323 228.916 191.308 222.433Z" fill="#020202"/>
<path opacity="0.1" d="M310.402 244.647C305.657 249.74 300.643 254.518 295.386 258.954C291.644 262.154 287.644 265.304 282.977 266.309C281.12 266.795 279.174 266.661 277.386 265.924C275.906 265.085 274.58 263.949 273.477 262.573C272.128 261.099 256.673 241.431 256.416 241.431C255.543 241.949 254.87 242.801 254.522 243.826C252.282 248.931 250.901 254.443 250.446 260.094C250.264 262.625 250.264 265.168 250.446 267.699C251.052 276.294 253.779 285.156 251.082 293.264C250.556 294.988 249.668 296.55 248.491 297.821C247.346 298.894 246.038 299.734 244.627 300.301C241.582 301.638 238.471 302.785 235.309 303.735C233.776 304.242 232.159 304.351 230.582 304.053C229.672 303.852 227.385 302.06 226.748 302.143C229.061 301.775 231.235 300.699 233.026 299.039C234.817 297.379 236.153 295.199 236.885 292.745C237.961 288.875 237.43 284.72 237.445 280.666C237.578 275.963 238.085 271.282 238.961 266.677L242.203 247.06C243.294 240.359 245.506 230.843 251.809 227.827C253.067 227.224 254.446 228.213 255.537 229.151C262.84 235.484 270.28 241.967 275.522 250.461C277.037 252.823 278.416 255.487 280.81 256.559C283.204 257.631 286.341 256.676 288.932 255.52C292.796 253.795 296.557 251.798 300.189 249.539C302.917 247.864 306.523 244.061 309.917 244.513C310.082 244.54 310.245 244.585 310.402 244.647Z" fill="#020202"/>
</g>
<defs>
<linearGradient id="paint0_linear" x1="214.99" y1="353.022" x2="214.99" y2="502.073" gradientUnits="userSpaceOnUse">
<stop offset="0.01"/>
<stop offset="0.08" stop-opacity="0.69"/>
<stop offset="0.21" stop-opacity="0.32"/>
<stop offset="1" stop-opacity="0"/>
</linearGradient>
<linearGradient id="paint1_linear" x1="37909.6" y1="5354.61" x2="38103.3" y2="1380.08" gradientUnits="userSpaceOnUse">
<stop offset="0.01"/>
<stop offset="0.08" stop-opacity="0.69"/>
<stop offset="0.21" stop-opacity="0.32"/>
<stop offset="1" stop-opacity="0"/>
</linearGradient>
<linearGradient id="paint2_linear" x1="7966.71" y1="5832.59" x2="8160.82" y2="1853.11" gradientUnits="userSpaceOnUse">
<stop offset="0.01"/>
<stop offset="0.08" stop-opacity="0.69"/>
<stop offset="0.21" stop-opacity="0.32"/>
<stop offset="1" stop-opacity="0"/>
</linearGradient>
<linearGradient id="paint3_linear" x1="-262856" y1="-6629.1" x2="-262983" y2="376.811" gradientUnits="userSpaceOnUse">
<stop offset="0.01"/>
<stop offset="0.08" stop-opacity="0.69"/>
<stop offset="0.21" stop-opacity="0.32"/>
<stop offset="1" stop-opacity="0"/>
</linearGradient>
<linearGradient id="paint4_linear" x1="2928.09" y1="12316.9" x2="5746.89" y2="12444.3" gradientUnits="userSpaceOnUse">
<stop offset="0.01"/>
<stop offset="0.08" stop-opacity="0.69"/>
<stop offset="0.21" stop-opacity="0.32"/>
<stop offset="1" stop-opacity="0"/>
</linearGradient>
<linearGradient id="paint5_linear" x1="7342.59" y1="25560.1" x2="21283.9" y2="19173.4" gradientUnits="userSpaceOnUse">
<stop offset="0.01"/>
<stop offset="0.08" stop-opacity="0.69"/>
<stop offset="0.21" stop-opacity="0.32"/>
<stop offset="1" stop-opacity="0"/>
</linearGradient>
<clipPath id="clip0">
<rect width="600" height="500" fill="white"/>
</clipPath>
</defs>
</svg>
