<svg width="27" height="29" viewBox="0 0 27 29" fill="none" xmlns="http://www.w3.org/2000/svg">
<path d="M21.6797 19.6562C20.6499 19.6562 19.6996 20.0176 18.9553 20.621L11.4686 15.2047C11.5939 14.5166 11.5939 13.8115 11.4686 13.1234L18.9553 7.70713C19.6996 8.31055 20.6499 8.67188 21.6797 8.67188C24.0717 8.67188 26.0156 6.72793 26.0156 4.33594C26.0156 1.94395 24.0717 0 21.6797 0C19.2877 0 17.3438 1.94395 17.3438 4.33594C17.3438 4.75508 17.4016 5.15615 17.5136 5.53916L10.4026 10.6881C9.34756 9.28975 7.671 8.38281 5.78125 8.38281C2.58711 8.38281 0 10.9699 0 14.1641C0 17.3582 2.58711 19.9453 5.78125 19.9453C7.671 19.9453 9.34756 19.0384 10.4026 17.64L17.5136 22.789C17.4016 23.172 17.3438 23.5767 17.3438 23.9922C17.3438 26.3842 19.2877 28.3281 21.6797 28.3281C24.0717 28.3281 26.0156 26.3842 26.0156 23.9922C26.0156 21.6002 24.0717 19.6562 21.6797 19.6562ZM21.6797 2.45703C22.7167 2.45703 23.5586 3.29893 23.5586 4.33594C23.5586 5.37295 22.7167 6.21484 21.6797 6.21484C20.6427 6.21484 19.8008 5.37295 19.8008 4.33594C19.8008 3.29893 20.6427 2.45703 21.6797 2.45703ZM5.78125 17.3438C4.02881 17.3438 2.60156 15.9165 2.60156 14.1641C2.60156 12.4116 4.02881 10.9844 5.78125 10.9844C7.53369 10.9844 8.96094 12.4116 8.96094 14.1641C8.96094 15.9165 7.53369 17.3438 5.78125 17.3438ZM21.6797 25.8711C20.6427 25.8711 19.8008 25.0292 19.8008 23.9922C19.8008 22.9552 20.6427 22.1133 21.6797 22.1133C22.7167 22.1133 23.5586 22.9552 23.5586 23.9922C23.5586 25.0292 22.7167 25.8711 21.6797 25.8711Z" fill="url(#paint0_linear)"/>
<defs>
<linearGradient id="paint0_linear" x1="-0.867188" y1="14.1641" x2="26.8828" y2="14.1641" gradientUnits="userSpaceOnUse">
<stop stop-color="#0282FB"/>
<stop offset="1" stop-color="#02EF51"/>
</linearGradient>
</defs>
</svg>
