<svg width="600" height="500" viewBox="0 0 600 500" fill="none" xmlns="http://www.w3.org/2000/svg">
<g clip-path="url(#clip0)">
<path d="M135.83 434.774C135.715 454.879 134.754 474.951 132.953 494.867C132.89 495.566 132.821 496.266 132.758 496.965L9.85798 495.913C9.49713 495.218 9.14196 494.515 8.79784 493.804C7.65043 491.45 6.57504 489.029 5.58783 486.524C0.842848 474.459 -1.32945 460.332 0.847404 450.585L0.886383 450.434C1.35628 448.3 2.09675 446.329 3.06525 444.634C8.02843 436.075 18.0635 437.502 27.1701 444.41C19.0021 430.713 12.4982 413.429 12.004 398.001C11.5195 382.953 16.6557 372.203 22.2265 363.067C22.4093 362.765 22.5921 362.472 22.7748 362.178C22.8636 362.027 22.9576 361.884 23.046 361.733C27.3925 354.771 32.4597 347.908 39.7942 348.739C47.8382 349.651 56.7565 359.973 63.0097 372.001C69.2629 384.021 73.4184 397.675 77.6303 411.001C81.8477 424.319 86.4106 437.977 93.1781 449.36C84.012 431.598 76.6216 411.389 73.8916 391.734C71.1616 372.079 73.5642 353.202 81.7334 343.945C84.2135 341.221 87.0834 339.447 90.1028 338.772C90.4552 338.682 90.8132 338.609 91.1768 338.545C98.7392 337.226 107.769 341.233 115.451 350.811C123.911 361.357 129.777 376.991 132.695 391.833C135.614 406.674 135.925 420.962 135.83 434.774Z" fill="#F2F2F2"/>
<path d="M55.4224 496.303L53.0724 496.283C52.3262 495.568 51.5764 494.861 50.8232 494.164C50.3569 493.713 49.8852 493.279 49.4132 492.836C41.618 485.542 33.774 478.546 25.8813 471.848C17.9958 465.144 10.0706 458.748 2.10582 452.662C1.89469 452.521 1.72245 452.271 1.61901 451.956C1.51557 451.641 1.48748 451.28 1.53962 450.937C1.54815 450.892 1.56138 450.849 1.57879 450.811C1.68988 450.491 1.93817 450.358 2.30055 450.631C3.27749 451.382 4.26007 452.132 5.23695 452.9C13.2235 459.09 21.1758 465.59 29.0938 472.398C37.0064 479.204 44.8739 486.309 52.6963 493.716C52.8607 493.869 53.0255 494.031 53.1899 494.184C53.9359 494.89 54.6765 495.596 55.4224 496.303Z" fill="white"/>
<path d="M85.7236 496.562L84.2704 496.55C83.9426 495.847 83.6205 495.144 83.2927 494.442C75.592 477.898 67.8929 461.354 60.1954 444.811C47.5898 417.726 34.988 390.642 22.39 363.558C22.3153 363.412 22.2598 363.245 22.2265 363.067C22.1188 362.467 22.4063 362.116 22.7748 362.178C22.9302 362.212 23.079 362.296 23.2114 362.425C23.3439 362.555 23.4568 362.725 23.5427 362.927C30.61 378.116 37.6756 393.299 44.7394 408.477C57.2793 435.425 69.8174 462.372 82.3538 489.315C83.1512 491.025 83.9486 492.744 84.746 494.454C85.0737 495.157 85.4015 495.86 85.7236 496.562Z" fill="white"/>
<path d="M118.098 483.633C118.024 487.385 117.862 491.078 117.651 494.736C117.61 495.435 117.568 496.135 117.527 496.834L116.003 496.821C116.049 496.122 116.096 495.422 116.137 494.722C116.459 489.438 116.688 484.093 116.719 478.604C116.759 463.385 115.791 448.198 113.829 433.278C111.744 417.214 108.749 401.458 104.88 386.189C100.819 370.085 95.9221 354.505 90.2374 339.599C90.1303 339.356 90.0826 339.063 90.1028 338.771C90.1657 338.105 90.7443 337.908 91.1768 338.544C91.2623 338.669 91.3358 338.812 91.3954 338.968C92.0987 340.821 92.7893 342.679 93.4669 344.543C98.942 359.532 103.628 375.166 107.481 391.296C111.151 406.615 113.943 422.395 115.825 438.456C117.587 453.357 118.349 468.495 118.098 483.633Z" fill="white"/>
<path d="M543.841 387.28C543.841 378.25 521.656 370.93 494.29 370.93C466.923 370.93 444.739 378.25 444.739 387.28C444.739 393.067 453.859 398.148 467.608 401.054V490.637C467.608 492.65 468.13 494.581 469.06 496.005C469.989 497.428 471.249 498.228 472.563 498.228C473.878 498.228 475.138 497.428 476.067 496.005C476.997 494.581 477.519 492.65 477.519 490.637V402.668C482.757 403.29 488.402 403.63 494.29 403.63C500.177 403.63 505.822 403.29 511.061 402.668V490.637C511.061 492.65 511.583 494.581 512.512 496.005C513.441 497.428 514.702 498.228 516.016 498.228C517.33 498.228 518.591 497.428 519.52 496.005C520.449 494.581 520.971 492.65 520.971 490.637V401.054C534.72 398.148 543.841 393.067 543.841 387.28Z" fill="#CCCCCC"/>
<path d="M499.769 237.625C511.557 237.625 521.114 222.985 521.114 204.925C521.114 186.865 511.557 172.224 499.769 172.224C487.98 172.224 478.424 186.865 478.424 204.925C478.424 222.985 487.98 237.625 499.769 237.625Z" fill="#2F2E41"/>
<path d="M446.65 484.708H437.304L432.858 429.482H446.651L446.65 484.708Z" fill="#A0616A"/>
<path d="M430.628 480.617H448.652V498.003H419.279C419.279 495.72 419.573 493.459 420.143 491.349C420.713 489.24 421.549 487.323 422.603 485.709C423.657 484.094 424.908 482.814 426.285 481.94C427.662 481.066 429.138 480.617 430.628 480.617Z" fill="#2F2E41"/>
<path d="M432.061 476.717L423.143 472.43L429.693 417.698L442.854 424.024L432.061 476.717Z" fill="#A0616A"/>
<path d="M417.574 465.465L434.771 473.733L431.373 490.321L403.348 476.848C403.794 474.669 404.516 472.647 405.472 470.896C406.429 469.145 407.601 467.7 408.922 466.643C410.243 465.586 411.687 464.938 413.171 464.736C414.656 464.533 416.152 464.781 417.574 465.465Z" fill="#2F2E41"/>
<path d="M435.101 454.682C434.692 454.682 434.286 454.569 433.903 454.348L427.027 450.398C426.255 449.951 425.614 449.093 425.22 447.982C424.827 446.871 424.706 445.58 424.882 444.345C426.613 432.421 432.513 391.824 435.743 370.05C439.574 344.222 495.466 339.423 497.843 339.231L498.038 339.215L504.326 351.319C506.598 362.507 505.877 371.233 502.185 377.256C491.412 394.829 459.246 383.924 455.41 382.544L438.313 451.298C438.064 452.294 437.624 453.15 437.05 453.754C436.477 454.359 435.797 454.682 435.101 454.682Z" fill="#2F2E41"/>
<path d="M445.011 462.857C444.602 462.857 444.196 462.744 443.813 462.523L436.937 458.574C436.165 458.126 435.524 457.269 435.13 456.158C434.737 455.046 434.617 453.755 434.792 452.52C436.523 440.596 442.423 400 445.653 378.225C449.485 352.397 505.376 347.598 507.753 347.407L507.948 347.391L514.236 359.495C516.508 370.682 515.788 379.408 512.095 385.431C501.322 403.003 469.156 392.1 465.32 390.719L448.223 459.474C447.974 460.469 447.534 461.326 446.96 461.93C446.387 462.534 445.707 462.857 445.011 462.857Z" fill="#2F2E41"/>
<path d="M425.119 294.66C425.371 295.178 425.597 295.725 425.793 296.297L463.391 302.365L468.803 290.997L481.07 301.268L470.44 328.855L424.329 310.843C423.165 312.581 421.684 313.735 420.082 314.151C418.481 314.568 416.834 314.228 415.361 313.176C413.889 312.123 412.66 310.41 411.839 308.262C411.018 306.114 410.643 303.634 410.764 301.152C410.885 298.67 411.497 296.303 412.518 294.366C413.538 292.43 414.919 291.015 416.478 290.31C418.036 289.605 419.697 289.644 421.241 290.421C422.784 291.198 424.137 292.677 425.119 294.66L425.119 294.66Z" fill="#A0616A"/>
<path d="M512.491 364.128C511.947 364.125 511.412 363.925 510.929 363.543C503.41 357.686 488.771 347.544 475.195 345.421C474.73 345.351 474.28 345.133 473.874 344.781C473.468 344.429 473.114 343.951 472.835 343.377C472.551 342.797 472.348 342.134 472.239 341.429C472.129 340.723 472.116 339.991 472.2 339.277C473.425 328.888 476.235 302.434 475.873 281.232C475.766 274.713 477.111 268.333 479.685 263.14C482.259 257.946 485.911 254.25 490.038 252.657C492.523 251.653 495.047 250.891 497.595 250.375C500.524 249.807 503.498 250.297 506.281 251.807C509.063 253.317 511.576 255.804 513.619 259.069C515.661 262.334 517.175 266.287 518.041 270.61C518.907 274.933 519.1 279.507 518.604 283.965C516.183 305.937 513.743 336.624 515.864 358.047C515.961 359.007 515.883 359.989 515.639 360.886C515.394 361.782 514.992 362.557 514.478 363.125C513.901 363.773 513.206 364.124 512.491 364.128Z" fill="#0282FB"/>
<path d="M476.569 308.243C476.1 308.242 475.636 308.093 475.207 307.807L465.412 301.312C464.578 300.757 463.922 299.718 463.587 298.422C463.253 297.127 463.267 295.681 463.627 294.402L471.198 267.608C471.655 265.988 472.316 264.522 473.142 263.294C473.969 262.066 474.946 261.099 476.017 260.449C477.087 259.799 478.231 259.479 479.383 259.507C480.534 259.534 481.671 259.909 482.728 260.61C483.785 261.311 484.741 262.324 485.542 263.591C486.344 264.858 486.974 266.355 487.398 267.996C487.821 269.636 488.03 271.389 488.011 273.153C487.992 274.917 487.747 276.658 487.289 278.277L479.718 305.071C479.451 306.012 479.011 306.813 478.452 307.377C477.893 307.94 477.238 308.241 476.569 308.243V308.243Z" fill="#0282FB"/>
<path d="M498.988 241.26C509.329 241.26 517.712 228.418 517.712 212.576C517.712 196.734 509.329 183.892 498.988 183.892C488.648 183.892 480.265 196.734 480.265 212.576C480.265 228.418 488.648 241.26 498.988 241.26Z" fill="#A0616A"/>
<path d="M479.928 198.483C488.797 206.777 498.795 211.824 509.145 213.231L506.065 207.578C508.308 208.848 510.667 209.566 513.056 209.705C515.442 209.648 517.943 208.24 519.297 205.23C519.901 203.733 520.26 202.035 520.343 200.28C520.426 198.525 520.231 196.766 519.774 195.151C518.835 191.931 517.374 189.133 515.53 187.023C512.262 183.062 508.404 180.401 504.302 179.277C500.199 178.154 495.979 178.603 492.017 180.585C489.299 181.829 486.865 184.221 484.994 187.486C483.219 190.841 479.802 193.83 480.711 197.917L479.928 198.483Z" fill="#2F2E41"/>
<path d="M502.137 175.335C496.231 166.16 489.085 159.081 481.201 154.594C476.14 151.722 470.632 149.947 465.341 151.578C460.05 153.209 455.046 158.817 453.57 166.77C452.363 173.273 453.609 180.275 455.483 186.397C457.356 192.518 459.857 198.195 461.371 204.545C462.917 211.025 463.382 217.993 462.724 224.817C462.065 231.642 460.305 238.106 457.603 243.624C454.9 249.142 451.341 253.538 447.248 256.414C443.155 259.29 438.658 260.554 434.165 260.092C439.363 261.16 444.155 264.903 449.236 266.895C454.318 268.887 460.315 268.752 464.091 263.175C468.087 257.274 468.167 247.68 467.973 239.184C467.686 226.553 467.399 213.923 467.112 201.292C466.965 194.851 466.84 188.203 468.357 182.191C469.873 176.179 473.477 170.914 477.684 170.969C480.872 171.01 483.694 173.969 486.251 176.888C488.808 179.806 491.514 182.919 494.69 183.353C497.866 183.788 501.493 180.187 501.255 175.316" fill="#2F2E41"/>
<path d="M467.51 356.759C466.269 356.757 465.044 356.334 463.923 355.519C462.802 354.704 461.813 353.519 461.028 352.048C460.242 350.577 459.679 348.857 459.379 347.013C459.079 345.169 459.05 343.245 459.294 341.382C459.538 339.518 460.048 337.761 460.789 336.236C461.53 334.711 462.482 333.457 463.577 332.563C464.672 331.67 465.883 331.16 467.122 331.07C468.361 330.98 469.598 331.312 470.744 332.043H470.744C471.088 332.266 471.422 332.525 471.744 332.819L505.85 309.36L506.809 295.189L521.511 294.586L521.413 318.179C521.395 320.912 520.802 323.563 519.723 325.739C518.643 327.915 517.135 329.5 515.421 330.258L475.534 347.651C475.457 348.055 475.365 348.452 475.261 348.841C474.621 351.183 473.544 353.184 472.165 354.592C470.786 356.001 469.167 356.754 467.51 356.759V356.759Z" fill="#A0616A"/>
<path d="M520.266 306.151C519.847 306.476 519.39 306.665 518.922 306.708L508.27 307.711C507.362 307.795 506.47 307.324 505.789 306.401C505.107 305.478 504.693 304.179 504.636 302.788L503.466 273.647C503.394 271.885 503.549 270.118 503.922 268.448C504.295 266.777 504.88 265.236 505.643 263.912C506.405 262.589 507.331 261.508 508.366 260.733C509.402 259.958 510.527 259.503 511.677 259.394C512.827 259.286 513.98 259.526 515.07 260.101C516.16 260.676 517.165 261.574 518.028 262.745C518.89 263.916 519.594 265.335 520.098 266.923C520.603 268.511 520.898 270.235 520.966 271.997L522.136 301.139C522.176 302.163 522.021 303.182 521.689 304.073C521.357 304.963 520.862 305.686 520.266 306.151L520.266 306.151Z" fill="#0282FB"/>
<path d="M497.114 359.706H436.89C436.183 359.706 435.504 359.275 435.004 358.508C434.503 357.742 434.222 356.702 434.222 355.618C434.222 354.534 434.503 353.494 435.004 352.728C435.504 351.961 436.183 351.53 436.89 351.53H497.114C497.821 351.53 498.5 351.961 499.001 352.728C499.501 353.494 499.782 354.534 499.782 355.618C499.782 356.702 499.501 357.742 499.001 358.508C498.5 359.275 497.821 359.706 497.114 359.706Z" fill="#3F3D56"/>
<path d="M410.59 352.114V294.889C410.592 292.876 411.114 290.946 412.043 289.523C412.972 288.1 414.231 287.3 415.545 287.297H483.392C484.706 287.3 485.965 288.1 486.894 289.523C487.823 290.946 488.346 292.876 488.347 294.889V352.114C488.346 354.127 487.823 356.057 486.894 357.48C485.965 358.903 484.706 359.703 483.392 359.706H415.545C414.231 359.703 412.972 358.903 412.043 357.48C411.114 356.057 410.592 354.127 410.59 352.114Z" fill="#3F3D56"/>
<path d="M449.469 330.509C451.995 330.509 454.043 327.371 454.043 323.501C454.043 319.631 451.995 316.494 449.469 316.494C446.942 316.494 444.895 319.631 444.895 323.501C444.895 327.371 446.942 330.509 449.469 330.509Z" fill="white"/>
<path d="M210.997 256.158C210.379 254.726 209.564 253.518 208.609 252.621C207.653 251.723 206.581 251.157 205.468 250.963C204.354 250.769 203.226 250.951 202.164 251.497C201.101 252.042 200.13 252.938 199.318 254.122L175.11 234.98L176.615 256.544L199.372 271.415C200.76 273.374 202.569 274.484 204.455 274.536C206.342 274.588 208.175 273.578 209.608 271.697C211.041 269.816 211.974 267.196 212.23 264.332C212.485 261.468 212.047 258.56 210.997 256.158H210.997Z" fill="#FFB8B8"/>
<path d="M189.484 264.839C189.046 265.146 188.57 265.31 188.088 265.317C187.607 265.325 187.129 265.178 186.687 264.884L163.693 249.604C155.831 244.381 149.475 234.961 145.808 223.096L133.72 184.006C132.828 182.25 132.17 180.242 131.785 178.096C131.4 175.951 131.294 173.71 131.475 171.503C131.655 169.295 132.118 167.163 132.837 165.23C133.555 163.296 134.516 161.598 135.663 160.234C136.81 158.869 138.122 157.864 139.522 157.277C140.923 156.69 142.386 156.531 143.827 156.81C145.268 157.089 146.659 157.801 147.92 158.904C149.181 160.007 150.288 161.481 151.177 163.24L172.425 223.635L192.045 246.34C192.607 246.993 193.024 247.895 193.24 248.923C193.457 249.95 193.462 251.055 193.255 252.088L191.329 261.617C191.122 262.639 190.717 263.54 190.168 264.2C189.957 264.453 189.727 264.668 189.484 264.839Z" fill="#CCCCCC"/>
<path d="M133.188 138.034C143.528 138.034 151.911 125.191 151.911 109.349C151.911 93.5074 143.528 80.665 133.188 80.665C122.847 80.665 114.464 93.5074 114.464 109.349C114.464 125.191 122.847 138.034 133.188 138.034Z" fill="#FFB8B8"/>
<path d="M140.772 485.634H150.117L154.564 430.408H140.769L140.772 485.634Z" fill="#FFB8B8"/>
<path d="M168.142 498.928L138.769 498.93L138.768 481.544L156.793 481.542C159.803 481.542 162.689 483.374 164.818 486.634C166.946 489.895 168.142 494.317 168.142 498.928L168.142 498.928Z" fill="#2F2E41"/>
<path d="M110.279 485.634H119.624L124.071 430.408H110.276L110.279 485.634Z" fill="#FFB8B8"/>
<path d="M137.649 498.928L108.276 498.93L108.275 481.544L126.3 481.542C129.31 481.542 132.196 483.374 134.325 486.634C136.453 489.895 137.649 494.317 137.649 498.928L137.649 498.928Z" fill="#2F2E41"/>
<path d="M107.015 469.827C106.693 469.263 106.453 468.601 106.312 467.884C106.171 467.168 106.131 466.413 106.195 465.671L122.558 277.66L163.212 288.237L167.551 284.248L156.331 462.635C156.238 463.839 155.876 464.957 155.308 465.8C154.739 466.644 153.997 467.16 153.209 467.264L140.899 468.835C140.41 468.898 139.917 468.799 139.455 468.545C138.993 468.291 138.571 467.888 138.22 467.363C137.868 466.837 137.594 466.203 137.416 465.501C137.238 464.8 137.161 464.048 137.189 463.297L140.376 378.343C140.382 378.199 140.352 378.057 140.293 377.944C140.234 377.831 140.15 377.755 140.057 377.732C139.964 377.709 139.868 377.739 139.789 377.818C139.71 377.896 139.652 378.017 139.628 378.156L123.86 467.733C123.663 468.848 123.232 469.832 122.634 470.535C122.035 471.237 121.302 471.619 120.548 471.621H109.596C109.107 471.621 108.624 471.461 108.179 471.151C107.734 470.842 107.337 470.39 107.015 469.827Z" fill="#2F2E41"/>
<path d="M135.169 290.82C134.703 290.173 134.103 289.796 133.474 289.756C132.845 289.716 132.227 290.015 131.727 290.6L123.599 300.285C123.157 300.814 122.636 301.168 122.084 301.317C121.531 301.465 120.964 301.404 120.43 301.138C119.897 300.872 119.414 300.41 119.025 299.791C118.635 299.173 118.351 298.417 118.196 297.591C114.209 276.201 105.177 222.359 107.402 184.464C108.663 162.983 120.771 146.658 134.392 148.028C143.704 148.979 149.831 157.209 152.601 172.488C159.403 210.003 166.878 278.816 168.307 292.231C168.42 293.272 168.325 294.34 168.034 295.297C167.744 296.253 167.271 297.053 166.679 297.59C162.833 301.127 158.439 303.021 153.954 303.076C148.527 303.076 142.02 300.181 135.169 290.82Z" fill="#CCCCCC"/>
<path d="M138.236 304.165C138.327 302.454 138.172 300.733 137.782 299.123C137.392 297.514 136.776 296.055 135.978 294.849C135.18 293.644 134.22 292.721 133.164 292.146C132.108 291.571 130.982 291.357 129.867 291.52L118.53 253.572L111.027 271.963L122.943 305.18C123.247 308.033 124.222 310.616 125.686 312.441C127.149 314.265 128.999 315.204 130.884 315.079C132.769 314.953 134.559 313.773 135.914 311.762C137.269 309.75 138.095 307.047 138.236 304.165H138.236Z" fill="#FFB8B8"/>
<path d="M117.812 290.656C117.343 290.484 116.903 290.163 116.521 289.713C116.139 289.264 115.822 288.696 115.593 288.047L103.655 254.285C99.5728 242.742 98.3661 229.321 100.26 216.517L106.494 174.33C106.5 172.105 106.792 169.904 107.353 167.852C107.914 165.801 108.734 163.938 109.765 162.372C110.797 160.806 112.019 159.566 113.364 158.725C114.708 157.883 116.147 157.455 117.599 157.466C119.051 157.477 120.488 157.926 121.827 158.788C123.165 159.65 124.38 160.908 125.401 162.489C126.423 164.071 127.23 165.945 127.779 168.005C128.327 170.065 128.605 172.271 128.596 174.495L120.987 242.107L127.279 278.522C127.458 279.567 127.423 280.67 127.179 281.684C126.935 282.697 126.494 283.571 125.915 284.188L120.562 289.865C119.987 290.474 119.306 290.8 118.607 290.799C118.339 290.8 118.072 290.751 117.812 290.656Z" fill="#CCCCCC"/>
<path opacity="0.2" d="M127.077 203.01L120.216 247.389L130.127 284.761L123.266 248.557L127.077 203.01Z" fill="black"/>
<path d="M122.503 132.936C120.837 132.984 119.182 132.525 117.633 131.587C116.952 131.184 116.244 130.854 115.564 130.451C109.555 126.895 105.597 117.091 105.456 107.226C105.314 97.3604 108.649 87.7849 113.601 81.4745C118.553 75.1641 124.967 71.9242 131.39 71.175C138.308 70.368 146.098 73.0558 149.964 81.8824C150.993 84.2319 151.713 87.0824 151.103 89.9192C150.92 90.7753 150.594 91.5428 150.157 92.1451C148.43 94.4982 146.709 92.7289 144.949 92.5726C142.53 92.3577 140.358 95.3574 139.577 98.8716C138.796 102.386 139.14 106.254 139.77 109.839C140.25 111.996 140.553 114.236 140.671 116.507C140.722 117.646 140.583 118.787 140.265 119.82C139.948 120.853 139.464 121.745 138.858 122.411C137.347 123.81 135.362 123 133.849 121.603C132.337 120.205 131.03 118.262 129.396 117.234C127.762 116.205 125.567 116.433 124.616 118.714C124.314 119.543 124.109 120.448 124.012 121.387C123.159 127.337 123.355 126.986 122.503 132.936L122.503 132.936Z" fill="#2F2E41"/>
<path d="M284.841 230.28C284.53 229.678 284.314 228.975 284.207 228.225C284.1 227.476 284.107 226.698 284.226 225.953C287.069 207.708 287.069 188.694 284.225 170.449C284.106 169.704 284.1 168.927 284.207 168.177C284.313 167.427 284.53 166.724 284.841 166.122C285.145 165.529 285.534 165.049 285.977 164.72C286.42 164.391 286.906 164.221 287.399 164.224H317.794C318.571 164.226 319.322 164.65 319.914 165.422C320.505 166.193 320.899 167.26 321.024 168.435C323.007 188.163 323.007 208.24 321.024 227.968C320.899 229.142 320.505 230.21 319.914 230.981C319.322 231.752 318.571 232.176 317.794 232.179H287.399C286.906 232.181 286.42 232.011 285.977 231.682C285.534 231.353 285.145 230.874 284.841 230.28Z" fill="#02EE53"/>
<path d="M237.82 66.0557C237.509 65.4538 237.293 64.7512 237.186 64.0014C237.079 63.2517 237.086 62.4746 237.205 61.7292C240.048 43.4844 240.048 24.4705 237.205 6.22573C237.086 5.48039 237.079 4.70327 237.186 3.95353C237.293 3.20379 237.509 2.5012 237.82 1.89927C238.124 1.30544 238.512 0.825716 238.956 0.49659C239.399 0.167463 239.885 -0.00236877 240.378 2.49568e-05H270.774C271.55 0.00242313 272.301 0.42696 272.893 1.19809C273.484 1.96922 273.878 3.03688 274.004 4.21103C275.986 23.9391 275.986 44.0159 274.004 63.7439C273.878 64.9181 273.484 65.9857 272.893 66.7569C272.301 67.528 271.55 67.9526 270.774 67.9549H240.378C239.885 67.9573 239.399 67.7875 238.956 67.4584C238.512 67.1292 238.124 66.6495 237.82 66.0557Z" fill="#E6E6E6"/>
<path d="M312.613 120.99C310.63 101.262 310.63 81.1852 312.613 61.4571C312.739 60.283 313.132 59.2152 313.724 58.444C314.315 57.6729 315.066 57.2484 315.843 57.2461H346.239C346.731 57.2437 347.218 57.4135 347.661 57.7427C348.104 58.0718 348.492 58.5516 348.796 59.1454C349.107 59.7473 349.324 60.4499 349.431 61.1996C349.537 61.9493 349.531 62.7265 349.412 63.4718C346.569 81.7166 346.569 100.731 349.412 118.975C349.531 119.721 349.537 120.498 349.431 121.248C349.324 121.997 349.107 122.7 348.796 123.302C348.492 123.896 348.104 124.375 347.661 124.704C347.218 125.034 346.731 125.203 346.239 125.201H315.843C315.066 125.199 314.315 124.774 313.724 124.003C313.132 123.232 312.739 122.164 312.613 120.99Z" fill="#0282FB"/>
<path d="M185.364 118.911C183.381 99.1833 183.381 79.1066 185.364 59.3785C185.489 58.2043 185.883 57.1367 186.475 56.3656C187.066 55.5944 187.817 55.1699 188.594 55.1675H218.989C219.482 55.1651 219.968 55.3349 220.412 55.6641C220.855 55.9932 221.243 56.4729 221.547 57.0667C221.858 57.6687 222.075 58.3713 222.181 59.121C222.288 59.8707 222.282 60.6479 222.163 61.3932C219.319 79.638 219.319 98.6519 222.162 116.897C222.282 117.642 222.288 118.419 222.181 119.169C222.075 119.919 221.858 120.621 221.547 121.223C221.243 121.817 220.855 122.297 220.412 122.626C219.968 122.955 219.482 123.125 218.989 123.122H188.594C187.817 123.12 187.066 122.695 186.475 121.924C185.883 121.153 185.489 120.086 185.364 118.911Z" fill="#02EE53"/>
<path d="M192.882 256.337C192.566 255.725 192.345 255.011 192.237 254.249C192.128 253.487 192.135 252.697 192.256 251.939C195.146 233.395 195.146 214.068 192.256 195.524C192.135 194.766 192.128 193.976 192.237 193.214C192.345 192.452 192.566 191.738 192.882 191.126C193.191 190.522 193.585 190.035 194.036 189.7C194.486 189.366 194.981 189.193 195.481 189.196H226.376C227.166 189.198 227.929 189.63 228.53 190.413C229.132 191.197 229.532 192.283 229.659 193.476C231.675 213.528 231.675 233.935 229.659 253.987C229.532 255.18 229.132 256.266 228.53 257.05C227.929 257.833 227.166 258.265 226.376 258.267H195.481C194.981 258.27 194.486 258.097 194.036 257.763C193.585 257.428 193.191 256.941 192.882 256.337Z" fill="#0282FB"/>
<path d="M9.59147 500H599.092C599.333 500 599.564 499.853 599.734 499.593C599.904 499.332 600 498.978 600 498.609C600 498.241 599.904 497.887 599.734 497.626C599.564 497.365 599.333 497.219 599.092 497.219H9.59147C9.47205 497.218 9.35374 497.254 9.24331 497.323C9.13288 497.393 9.03251 497.495 8.94795 497.625C8.86338 497.754 8.79628 497.907 8.7505 498.076C8.70472 498.245 8.68115 498.426 8.68115 498.609C8.68115 498.792 8.70472 498.973 8.7505 499.142C8.79628 499.311 8.86338 499.465 8.94795 499.594C9.03251 499.723 9.13288 499.825 9.24331 499.895C9.35374 499.965 9.47205 500 9.59147 500Z" fill="#3F3D56"/>
<path d="M220.414 214.681H204.139C203.533 214.68 202.952 214.311 202.523 213.654C202.094 212.997 201.853 212.106 201.852 211.177V209.69C201.853 208.761 202.094 207.87 202.523 207.213C202.952 206.557 203.533 206.187 204.139 206.186H220.414C221.021 206.187 221.602 206.557 222.031 207.213C222.46 207.87 222.701 208.761 222.701 209.69V211.177C222.701 212.106 222.46 212.997 222.031 213.654C221.602 214.311 221.021 214.68 220.414 214.681Z" fill="white"/>
<path d="M220.414 229.335H204.139C203.533 229.334 202.952 228.964 202.523 228.308C202.094 227.651 201.853 226.76 201.852 225.831V224.343C201.853 223.415 202.094 222.524 202.523 221.867C202.952 221.21 203.533 220.841 204.139 220.84H220.414C221.021 220.841 221.602 221.21 222.031 221.867C222.46 222.524 222.701 223.415 222.701 224.343V225.831C222.701 226.76 222.46 227.651 222.031 228.308C221.602 228.964 221.021 229.334 220.414 229.335Z" fill="white"/>
<path d="M209.636 83.9867H193.685C193.079 83.9857 192.497 83.6162 192.069 82.9594C191.64 82.3026 191.399 81.412 191.398 80.4831V79.1145C191.399 78.1856 191.64 77.295 192.069 76.6381C192.497 75.9813 193.079 75.6119 193.685 75.6108H209.636C210.242 75.6119 210.823 75.9813 211.252 76.6381C211.681 77.295 211.922 78.1856 211.923 79.1145V80.4831C211.922 81.412 211.681 82.3026 211.252 82.9594C210.823 83.6162 210.242 83.9857 209.636 83.9867Z" fill="white"/>
<path d="M311.543 186.911H295.592C294.986 186.91 294.405 186.541 293.976 185.884C293.547 185.227 293.306 184.336 293.305 183.407V182.038C293.306 181.109 293.547 180.219 293.976 179.562C294.405 178.905 294.986 178.536 295.592 178.535H311.543C312.149 178.536 312.73 178.905 313.159 179.562C313.588 180.219 313.829 181.109 313.83 182.038V183.407C313.829 184.336 313.588 185.227 313.159 185.884C312.73 186.541 312.149 186.91 311.543 186.911Z" fill="white"/>
<path d="M311.543 204.211H295.592C294.986 204.21 294.405 203.841 293.976 203.184C293.547 202.527 293.306 201.637 293.305 200.708V199.339C293.306 198.41 293.547 197.519 293.976 196.862C294.405 196.205 294.986 195.836 295.592 195.835H311.543C312.149 195.836 312.73 196.205 313.159 196.862C313.588 197.519 313.829 198.41 313.83 199.339V200.708C313.829 201.637 313.588 202.527 313.159 203.184C312.73 203.841 312.149 204.21 311.543 204.211Z" fill="white"/>
<path d="M311.543 221.512H295.592C294.986 221.511 294.405 221.141 293.976 220.484C293.547 219.828 293.306 218.937 293.305 218.008V216.639C293.306 215.71 293.547 214.819 293.976 214.163C294.405 213.506 294.986 213.136 295.592 213.135H311.543C312.149 213.136 312.73 213.506 313.159 214.163C313.588 214.819 313.829 215.71 313.83 216.639V218.008C313.829 218.937 313.588 219.828 313.159 220.484C312.73 221.141 312.149 221.511 311.543 221.512Z" fill="white"/>
<path d="M209.636 98.4038H193.685C193.079 98.4028 192.497 98.0333 192.069 97.3765C191.64 96.7196 191.399 95.8291 191.398 94.9001V93.531C191.399 92.6021 191.64 91.7115 192.069 91.0547C192.497 90.3978 193.079 90.0284 193.685 90.0273H209.636C210.242 90.0284 210.823 90.3978 211.252 91.0547C211.681 91.7115 211.922 92.6021 211.923 93.531V94.9001C211.922 95.8291 211.681 96.7196 211.252 97.3765C210.823 98.0333 210.242 98.4028 209.636 98.4038Z" fill="white"/>
<path d="M264.658 25.5708H248.708C248.101 25.5698 247.52 25.2003 247.091 24.5435C246.662 23.8866 246.421 22.996 246.421 22.0671V20.698C246.421 19.7691 246.662 18.8785 247.091 18.2216C247.52 17.5648 248.101 17.1953 248.708 17.1943H264.658C265.264 17.1953 265.846 17.5648 266.274 18.2216C266.703 18.8785 266.944 19.7691 266.945 20.698V22.0671C266.944 22.996 266.703 23.8866 266.274 24.5435C265.846 25.2003 265.264 25.5698 264.658 25.5708Z" fill="white"/>
<path d="M337.44 87.5073H321.489C320.883 87.5063 320.302 87.1368 319.873 86.48C319.444 85.8231 319.203 84.9326 319.202 84.0037V82.6345C319.203 81.7056 319.444 80.815 319.873 80.1582C320.302 79.5013 320.883 79.1319 321.489 79.1309H337.44C338.046 79.1319 338.628 79.5013 339.056 80.1582C339.485 80.815 339.726 81.7056 339.727 82.6345V84.0037C339.726 84.9326 339.485 85.8231 339.056 86.48C338.628 87.1368 338.046 87.5063 337.44 87.5073Z" fill="white"/>
</g>
<defs>
<clipPath id="clip0">
<rect width="600" height="500" fill="white"/>
</clipPath>
</defs>
</svg>
