<svg width="321" height="262" viewBox="0 0 321 262" fill="none" xmlns="http://www.w3.org/2000/svg">
<path d="M135.823 1.24396C119.475 3.01035 96.1215 9.80406 80.441 16.8695C66.7622 23.2556 35.4011 45.539 35.4011 49.0718C35.4011 49.887 57.087 68.366 83.7772 89.97L132.153 129.374L97.456 157.635C59.0887 189.022 62.5918 187.528 54.5848 174.892C46.7445 162.255 43.4082 151.793 42.5741 135.488C42.0737 126.928 42.5741 117.281 43.4082 114.156L45.0764 108.313L38.9042 107.09C32.0648 105.596 15.0498 102.199 8.37723 100.976C4.04006 100.161 4.04006 100.296 2.03829 109.944C-0.964361 123.803 0.703781 150.978 5.37458 164.701C12.8812 187.528 28.0613 208.045 49.7471 225.165L62.2582 235.084L111.802 194.865L161.346 154.51L195.376 182.229L229.406 209.947L222.066 213.752C203.383 223.263 176.693 228.698 153.839 227.475C145.999 227.067 138.659 226.524 137.325 226.252C135.656 225.98 133.655 230.192 129.985 241.878C127.316 250.709 125.314 258.183 125.814 258.454C127.983 260.221 155.174 261.987 169.687 261.308C210.89 259.405 247.589 245.41 276.281 220.953L289.292 209.947L240.416 169.864L191.372 129.917L224.735 103.557C243.085 89.0189 258.598 77.1978 259.266 77.0619C261.601 77.0619 273.779 99.6171 276.614 108.992C278.616 115.922 279.117 122.987 278.616 135.08L277.949 151.657L296.966 155.326C312.479 158.179 316.316 158.587 317.484 157.092C322.155 150.842 321.154 113.612 315.816 97.1713C311.812 84.6709 303.305 69.3171 294.464 58.4471C287.457 49.7511 262.936 28.1471 259.933 28.1471C258.932 28.1471 236.412 45.8108 209.722 67.4148L161.346 106.547L127.483 78.2848L93.4525 50.0229L104.963 45.2673C123.979 37.5224 138.993 34.3973 158.01 34.3973C167.184 34.2615 177.86 34.6691 181.697 35.2126L188.537 36.2996L192.04 23.6633C194.041 16.7337 195.876 9.26056 196.043 7.08656C196.377 3.14621 196.21 3.01035 185.534 1.51572C172.522 -0.386536 150.336 -0.5224 135.823 1.24396Z" fill="#E81224" fill-opacity="0.7"/>
</svg>
